<svg width="16" height="16" viewBox="0 0 16 16" fill="none" xmlns="http://www.w3.org/2000/svg">
    <g clip-path="url(#clip0_98_32)">
        <path d="M7.40624 10.716V9.34461H6.05534C5.68731 9.34461 5.33435 9.19834 5.07411 8.93798C4.81387 8.67761 4.66767 8.32448 4.66767 7.95627C4.66767 7.58805 4.81387 7.23492 5.07411 6.97456C5.33435 6.71419 5.68731 6.56792 6.05534 6.56792H7.40624V5.19658C7.40624 4.82837 7.55244 4.47524 7.81268 4.21487C8.07291 3.95451 8.42587 3.80823 8.79391 3.80823V3.80823C9.16194 3.80823 9.5149 3.95451 9.77514 4.21487C10.0354 4.47524 10.1816 4.82837 10.1816 5.19658V6.56792H12.0046C12.1351 6.56788 12.2632 6.53367 12.3763 6.46869C12.4894 6.40371 12.5836 6.31023 12.6493 6.19755C12.7151 6.08487 12.7503 5.95692 12.7513 5.82643C12.7523 5.69594 12.7191 5.56746 12.6551 5.45377C12.198 4.63824 11.5298 3.961 10.7206 3.49327C9.91138 3.02554 8.99117 2.7846 8.05671 2.79578C5.23384 2.82771 2.93517 5.13792 2.91505 7.96251C2.90775 9.06289 3.24912 10.1373 3.89017 11.0315C4.53121 11.9257 5.43895 12.5936 6.48308 12.9395C7.5272 13.2854 8.65402 13.2914 9.70175 12.9566C10.7495 12.6218 11.6643 11.9635 12.3148 11.0762C12.4852 10.8444 12.7253 10.6732 13 10.5878C13.2747 10.5025 13.5695 10.5073 13.8412 10.6018V10.6018C14.0396 10.6703 14.2192 10.7842 14.3657 10.9345C14.5123 11.0847 14.6218 11.2671 14.6855 11.4672C14.7492 11.6672 14.7654 11.8793 14.7327 12.0867C14.7 12.2941 14.6194 12.491 14.4972 12.6617C13.6812 13.8022 12.5795 14.7077 11.3029 15.2873C10.0263 15.8669 8.6197 16.1001 7.22445 15.9636C3.42536 15.6071 0.396081 12.5781 0.0377151 8.77886C-0.41189 4.00989 3.32441 0 7.99704 0C11.9245 0 15.19 2.83327 15.8648 6.56792V6.89522C15.8647 7.54481 15.6067 8.16777 15.1476 8.6271C14.6885 9.08643 14.0659 9.34452 13.4166 9.34461H10.1816V10.716C10.1816 11.0842 10.0354 11.4373 9.77514 11.6977C9.5149 11.958 9.16194 12.1043 8.79391 12.1043C8.42587 12.1043 8.07291 11.958 7.81268 11.6977C7.55244 11.4373 7.40624 11.0842 7.40624 10.716Z" fill="#0071FF"/>
    </g>
    <defs>
        <clipPath id="clip0_98_32">
            <rect width="15.8638" height="16" fill="white"/>
        </clipPath>
    </defs>
</svg>
