<svg width="50" height="50" viewBox="0 0 50 50" fill="none" xmlns="http://www.w3.org/2000/svg">
    <g clip-path="url(#clip0_66_110)">
        <path d="M10.9375 29.1V39.2693C10.9327 40.3621 11.1579 41.4451 11.6003 42.4564C12.0426 43.4678 12.6935 44.3876 13.5157 45.1635C14.3379 45.9394 15.3153 46.5562 16.3921 46.9785C17.469 47.4009 18.6241 47.6205 19.7917 47.625V47.625C20.9592 47.6205 22.1144 47.4009 23.1912 46.9785C24.268 46.5562 25.2454 45.9394 26.0676 45.1635C26.8898 44.3876 27.5407 43.4678 27.983 42.4564C28.4254 41.4451 28.6506 40.3621 28.6458 39.2693V28.125" stroke="#F4C146" stroke-width="4" stroke-linecap="round" stroke-linejoin="round"/>
        <path d="M10.9375 29.1667C13.2387 29.1667 15.1042 27.3012 15.1042 25C15.1042 22.6988 13.2387 20.8333 10.9375 20.8333C8.63632 20.8333 6.77084 22.6988 6.77084 25C6.77084 27.3012 8.63632 29.1667 10.9375 29.1667Z" stroke="#F4C146" stroke-width="4" stroke-linecap="round" stroke-linejoin="round"/>
        <path d="M10.9375 29.1667C13.2387 29.1667 15.1042 27.3012 15.1042 25C15.1042 22.6988 13.2387 20.8333 10.9375 20.8333C8.63632 20.8333 6.77084 22.6988 6.77084 25C6.77084 27.3012 8.63632 29.1667 10.9375 29.1667Z" stroke="#F4C146" stroke-width="4" stroke-linecap="round" stroke-linejoin="round"/>
        <path d="M37.2396 3.125L39.8438 2.08333L37.2396 1.04167V3.125Z" stroke="#F4C146" stroke-width="4" stroke-linecap="round" stroke-linejoin="round"/>
        <path d="M18.75 2.08333H16.6198C15.1042 2.08333 13.8906 3.64583 14.0625 5.39063C15.2344 15.9063 20.151 28.125 28.6458 28.125C37.1406 28.125 42.0573 15.9063 43.2291 5.39063C43.401 3.64583 42.1875 2.08333 40.6719 2.08333H38.5417" stroke="#F4C146" stroke-width="4" stroke-linecap="round" stroke-linejoin="round"/>
        <path d="M20.0521 3.125L17.4479 2.08333L20.0521 1.04167V3.125Z" stroke="#F4C146" stroke-width="4" stroke-linecap="round" stroke-linejoin="round"/>
        <path d="M10.9375 26.0417C11.5128 26.0417 11.9792 25.5753 11.9792 25C11.9792 24.4247 11.5128 23.9583 10.9375 23.9583C10.3622 23.9583 9.89584 24.4247 9.89584 25C9.89584 25.5753 10.3622 26.0417 10.9375 26.0417Z" stroke="#F4C146" stroke-width="4" stroke-linecap="round" stroke-linejoin="round"/>
    </g>
    <defs>
        <clipPath id="clip0_66_110">
            <rect width="50" height="50" fill="white"/>
        </clipPath>
    </defs>
</svg>
