<svg width="707" height="523" viewBox="0 0 707 523" fill="none" xmlns="http://www.w3.org/2000/svg">
    <path d="M636.159 486.465H589.327V486.818H636.159V486.465Z" fill="#EBEBEB"/>
    <path d="M468.345 490.311H456.057V490.665H468.345V490.311Z" fill="#EBEBEB"/>
    <path d="M587.913 473.343H560.778V473.697H587.913V473.343Z" fill="#EBEBEB"/>
    <path d="M135.249 475.719H74.1785V476.072H135.249V475.719Z" fill="#EBEBEB"/>
    <path d="M156.799 475.719H147.848V476.072H156.799V475.719Z" fill="#EBEBEB"/>
    <path d="M318.362 481.686H185.898V482.039H318.362V481.686Z" fill="#EBEBEB"/>
    <path d="M335.118 400.649H62.1027C59.9614 400.649 57.9078 399.799 56.3936 398.284C54.8795 396.77 54.0288 394.717 54.0288 392.575V8.77326C54.0475 6.64419 54.9063 4.60867 56.4185 3.10977C57.9306 1.61087 59.9736 0.769938 62.1027 0.77002H335.118C337.259 0.77002 339.313 1.62066 340.827 3.13482C342.341 4.64898 343.192 6.70262 343.192 8.84396V392.575C343.192 394.717 342.341 396.77 340.827 398.284C339.313 399.799 337.259 400.649 335.118 400.649ZM62.1027 1.05282C60.0563 1.05656 58.0948 1.87116 56.6477 3.31821C55.2007 4.76527 54.386 6.72682 54.3823 8.77326V392.575C54.386 394.622 55.2007 396.583 56.6477 398.03C58.0948 399.477 60.0563 400.292 62.1027 400.296H335.118C337.164 400.292 339.126 399.477 340.573 398.03C342.02 396.583 342.835 394.622 342.838 392.575V8.77326C342.835 6.72682 342.02 4.76527 340.573 3.31821C339.126 1.87116 337.164 1.05656 335.118 1.05282H62.1027Z" fill="#EBEBEB"/>
    <path d="M640.98 400.649H367.937C365.797 400.646 363.745 399.794 362.232 398.28C360.719 396.767 359.867 394.716 359.863 392.575V8.77326C359.885 6.64535 360.745 4.61197 362.257 3.11386C363.768 1.61575 365.809 0.773623 367.937 0.77002H640.98C643.105 0.777379 645.14 1.6216 646.646 3.1197C648.152 4.61781 649.007 6.64908 649.026 8.77326V392.575C649.026 394.712 648.179 396.761 646.671 398.274C645.163 399.788 643.117 400.642 640.98 400.649ZM367.937 1.05282C365.891 1.05656 363.929 1.87116 362.482 3.31821C361.035 4.76527 360.22 6.72682 360.217 8.77326V392.575C360.22 394.622 361.035 396.583 362.482 398.03C363.929 399.477 365.891 400.292 367.937 400.296H640.98C643.027 400.292 644.988 399.477 646.435 398.03C647.882 396.583 648.697 394.622 648.701 392.575V8.77326C648.697 6.72682 647.882 4.76527 646.435 3.31821C644.988 1.87116 643.027 1.05656 640.98 1.05282H367.937Z" fill="#EBEBEB"/>
    <path d="M707 463.714H0V464.067H707V463.714Z" fill="#EBEBEB"/>
    <path d="M351.577 291.135H347.335V240.372C347.405 234.945 345.391 229.697 341.709 225.709C338.026 221.722 332.955 219.298 327.539 218.936C324.803 218.799 322.066 219.202 319.486 220.123C316.906 221.044 314.532 222.464 312.501 224.302C310.469 226.141 308.82 228.361 307.647 230.837C306.474 233.313 305.8 235.996 305.664 238.732C305.654 239 305.541 239.253 305.348 239.44C305.156 239.627 304.9 239.733 304.632 239.736H302.455C302.316 239.736 302.179 239.709 302.051 239.655C301.923 239.602 301.807 239.523 301.71 239.425C301.612 239.326 301.536 239.209 301.484 239.08C301.432 238.952 301.406 238.814 301.408 238.676C301.691 232.284 304.399 226.241 308.98 221.775C313.561 217.31 319.672 214.757 326.068 214.638C340.095 214.397 351.52 226.36 351.52 240.401L351.577 291.135Z" fill="#F0F0F0"/>
    <path d="M625.964 296.678H595.817V463.657H625.964V296.678Z" fill="#E6E6E6"/>
    <path d="M604.047 296.678H277.413V463.657H604.047V296.678Z" fill="#F5F5F5"/>
    <path d="M604.047 331.448H277.413V334.276H357.657V463.657H360.485V334.276H438.538V463.657H441.366V334.276H519.433V463.657H522.261V334.276H604.047V331.448Z" fill="#E0E0E0"/>
    <path d="M349.527 405.683C348.777 405.683 348.057 405.385 347.527 404.855C346.997 404.324 346.699 403.605 346.699 402.855V390.129C346.699 389.379 346.997 388.66 347.527 388.129C348.057 387.599 348.777 387.301 349.527 387.301C350.277 387.301 350.996 387.599 351.526 388.129C352.057 388.66 352.355 389.379 352.355 390.129V402.855C352.355 403.605 352.057 404.324 351.526 404.855C350.996 405.385 350.277 405.683 349.527 405.683Z" fill="#E6E6E6"/>
    <path d="M368.616 405.683C367.866 405.683 367.146 405.385 366.616 404.855C366.086 404.324 365.788 403.605 365.788 402.855V390.129C365.788 389.379 366.086 388.66 366.616 388.129C367.146 387.599 367.866 387.301 368.616 387.301C369.366 387.301 370.085 387.599 370.615 388.129C371.146 388.66 371.444 389.379 371.444 390.129V402.855C371.444 403.605 371.146 404.324 370.615 404.855C370.085 405.385 369.366 405.683 368.616 405.683Z" fill="#E6E6E6"/>
    <path d="M511.302 405.683C510.552 405.683 509.833 405.385 509.303 404.855C508.772 404.324 508.474 403.605 508.474 402.855V390.129C508.474 389.379 508.772 388.66 509.303 388.129C509.833 387.599 510.552 387.301 511.302 387.301C512.052 387.301 512.772 387.599 513.302 388.129C513.832 388.66 514.13 389.379 514.13 390.129V402.855C514.13 403.605 513.832 404.324 513.302 404.855C512.772 405.385 512.052 405.683 511.302 405.683Z" fill="#E6E6E6"/>
    <path d="M530.391 405.683C529.641 405.683 528.922 405.385 528.392 404.855C527.861 404.324 527.563 403.605 527.563 402.855V390.129C527.563 389.379 527.861 388.66 528.392 388.129C528.922 387.599 529.641 387.301 530.391 387.301C531.142 387.301 531.861 387.599 532.391 388.129C532.922 388.66 533.219 389.379 533.219 390.129V402.855C533.219 403.605 532.922 404.324 532.391 404.855C531.861 405.385 531.142 405.683 530.391 405.683Z" fill="#E6E6E6"/>
    <path d="M633.034 293.016H595.562V300.326H633.034V293.016Z" fill="#E0E0E0"/>
    <path d="M606.875 293.016H270.343V300.326H606.875V293.016Z" fill="#EBEBEB"/>
    <path d="M390.575 293.85H279.024C278.304 293.85 277.614 293.564 277.105 293.054C276.596 292.545 276.31 291.855 276.31 291.135C276.31 290.415 276.596 289.724 277.105 289.215C277.614 288.706 278.304 288.42 279.024 288.42H390.575C391.295 288.42 391.985 288.706 392.495 289.215C393.004 289.724 393.29 290.415 393.29 291.135C393.29 291.855 393.004 292.545 392.495 293.054C391.985 293.564 391.295 293.85 390.575 293.85Z" fill="#E6E6E6"/>
    <path d="M362.239 283.853H358.011V289.226H362.239V283.853Z" fill="#E0E0E0"/>
    <path d="M364.048 285.196H356.187L357.714 275.793H362.521L364.048 285.196Z" fill="#F0F0F0"/>
    <path d="M340.845 283.853H336.617V289.226H340.845V283.853Z" fill="#E0E0E0"/>
    <path d="M342.669 285.196H334.793L336.334 275.793H341.127L342.669 285.196Z" fill="#F0F0F0"/>
    <path d="M430.521 25.3877H427.975V223.871H430.521V25.3877Z" fill="#E0E0E0"/>
    <path d="M588.959 25.3877H586.414V223.871H588.959V25.3877Z" fill="#E0E0E0"/>
    <path d="M598.928 37.8733H418.007L414.189 28.9651H602.746L598.928 37.8733Z" fill="#EBEBEB"/>
    <path d="M598.928 50.1045H418.007L414.189 41.1963H602.746L598.928 50.1045Z" fill="#EBEBEB"/>
    <path d="M598.928 62.3357H418.007L414.189 53.4275H602.746L598.928 62.3357Z" fill="#EBEBEB"/>
    <path d="M598.928 74.5667H418.007L414.189 65.6584H602.746L598.928 74.5667Z" fill="#EBEBEB"/>
    <path d="M598.928 86.7978H418.007L414.189 77.8896H602.746L598.928 86.7978Z" fill="#EBEBEB"/>
    <path d="M598.928 99.0288H418.007L414.189 90.1206H602.746L598.928 99.0288Z" fill="#EBEBEB"/>
    <path d="M598.928 111.26H418.007L414.189 102.352H602.746L598.928 111.26Z" fill="#EBEBEB"/>
    <path d="M598.928 123.477H418.007L414.189 114.583H602.746L598.928 123.477Z" fill="#EBEBEB"/>
    <path d="M598.928 135.722H418.007L414.189 126.8H602.746L598.928 135.722Z" fill="#EBEBEB"/>
    <path d="M598.928 147.939H418.007L414.189 139.031H602.746L598.928 147.939Z" fill="#EBEBEB"/>
    <path d="M598.928 160.17H418.007L414.189 151.262H602.746L598.928 160.17Z" fill="#EBEBEB"/>
    <path d="M598.928 172.401H418.007L414.189 163.493H602.746L598.928 172.401Z" fill="#EBEBEB"/>
    <path d="M598.928 184.632H418.007L414.189 175.724H602.746L598.928 184.632Z" fill="#EBEBEB"/>
    <path d="M598.928 196.864H418.007L414.189 187.955H602.746L598.928 196.864Z" fill="#EBEBEB"/>
    <path d="M598.928 209.095H418.007L414.189 200.187H602.746L598.928 209.095Z" fill="#EBEBEB"/>
    <path d="M598.928 221.326H418.007L414.189 212.417H602.746L598.928 221.326Z" fill="#EBEBEB"/>
    <path d="M602.746 221.326H414.189V226.416H602.746V221.326Z" fill="#E0E0E0"/>
    <path d="M609.321 17.8088H407.614V29.6864H609.321V17.8088Z" fill="#E0E0E0"/>
    <path d="M409.692 137.377C409.149 137.377 408.627 137.161 408.243 136.776C407.858 136.392 407.642 135.87 407.642 135.326V66.0403C407.642 65.4965 407.858 64.975 408.243 64.5905C408.627 64.206 409.149 63.99 409.692 63.99C410.236 63.99 410.758 64.206 411.142 64.5905C411.527 64.975 411.743 65.4965 411.743 66.0403V135.326C411.743 135.87 411.527 136.392 411.142 136.776C410.758 137.161 410.236 137.377 409.692 137.377Z" fill="#E0E0E0"/>
    <path d="M410.428 27.3108H408.943V68.4582H410.428V27.3108Z" fill="#E0E0E0"/>
    <path d="M172.536 372.793H232.278V363.602H172.536V372.793Z" fill="#E0E0E0"/>
    <path d="M235.813 463.643H170.769V373.529C170.769 372.303 171.256 371.126 172.123 370.259C172.99 369.392 174.166 368.905 175.393 368.905H231.246C232.472 368.905 233.648 369.392 234.515 370.259C235.382 371.126 235.869 372.303 235.869 373.529V463.643H235.813Z" fill="#F0F0F0"/>
    <path d="M175.873 366.43H230.708C233.527 366.43 235.813 364.145 235.813 361.326V357.395C235.813 354.576 233.527 352.29 230.708 352.29H175.873C173.054 352.29 170.769 354.576 170.769 357.395V361.326C170.769 364.145 173.054 366.43 175.873 366.43Z" fill="#F0F0F0"/>
    <path d="M216.724 463.657H247.125V459.415L216.724 456.587V463.657Z" fill="#E0E0E0"/>
    <path d="M577.067 237.078H550.753C548.17 237.081 545.694 238.109 543.868 239.935C542.042 241.762 541.014 244.237 541.01 246.82V250.072H546.256V246.806C546.255 246.214 546.37 245.628 546.595 245.081C546.82 244.534 547.151 244.036 547.568 243.617C547.986 243.198 548.483 242.866 549.029 242.639C549.575 242.412 550.161 242.295 550.753 242.295H577.067C578.261 242.299 579.405 242.776 580.248 243.621C581.091 244.467 581.564 245.612 581.564 246.806V250.058H586.81V246.806C586.806 244.225 585.778 241.75 583.951 239.926C582.125 238.102 579.649 237.078 577.067 237.078Z" fill="#E0E0E0"/>
    <path d="M608.246 257.185V286.667C608.246 288.542 607.501 290.34 606.175 291.666C604.85 292.992 603.051 293.737 601.176 293.737H537.15C535.275 293.737 533.477 292.992 532.151 291.666C530.825 290.34 530.08 288.542 530.08 286.667V257.185C530.08 255.31 530.825 253.511 532.151 252.185C533.477 250.86 535.275 250.115 537.15 250.115H601.12C602.053 250.107 602.978 250.285 603.843 250.637C604.707 250.989 605.493 251.508 606.155 252.165C606.818 252.823 607.344 253.605 607.703 254.466C608.061 255.328 608.246 256.252 608.246 257.185Z" fill="#E6E6E6"/>
    <path d="M598.278 257.185V286.667C598.278 288.542 597.533 290.34 596.207 291.666C594.881 292.992 593.083 293.737 591.208 293.737H527.182C525.306 293.737 523.508 292.992 522.182 291.666C520.856 290.34 520.112 288.542 520.112 286.667V257.185C520.112 255.31 520.856 253.511 522.182 252.185C523.508 250.86 525.306 250.115 527.182 250.115H591.151C592.084 250.107 593.01 250.285 593.874 250.637C594.738 250.989 595.524 251.508 596.187 252.165C596.849 252.823 597.375 253.605 597.734 254.466C598.093 255.328 598.278 256.252 598.278 257.185Z" fill="#F5F5F5"/>
    <path d="M576.106 255.135H542.721V288.519H576.106V255.135Z" fill="white"/>
    <path d="M562.263 262.643H556.621V282.057H562.263V262.643Z" fill="#E0E0E0"/>
    <path d="M549.735 269.515V275.157H569.149V269.515H549.735Z" fill="#E0E0E0"/>
    <path d="M346.685 522.126C498.099 522.126 620.845 514.96 620.845 506.12C620.845 497.279 498.099 490.113 346.685 490.113C195.27 490.113 72.5242 497.279 72.5242 506.12C72.5242 514.96 195.27 522.126 346.685 522.126Z" fill="#F5F5F5"/>
    <path d="M490.333 258.273C491.266 258.16 518.302 260.833 520.027 289.806L515.403 309.884C493.55 301.769 469.456 302.091 447.828 310.789L447.503 310.931L449.383 287.996C449.383 287.996 456.312 262.261 490.333 258.273Z" fill="#263238"/>
    <path d="M433.561 398.203L438.99 398.67C440.974 364.191 444.868 329.848 450.656 295.801C451.698 290.299 453.822 285.059 456.904 280.384C459.987 275.709 463.967 271.692 468.614 268.567C470.577 267.151 472.716 265.996 474.977 265.131C479.132 263.351 483.593 262.391 488.113 262.303C489.948 262.304 491.781 262.431 493.599 262.685C497.701 263.315 501.615 264.835 505.067 267.139C506.684 268.377 508.233 269.704 509.704 271.113C510.482 271.916 511.205 272.771 511.868 273.672C514.252 277.093 515.897 280.974 516.695 285.067C517.494 289.16 517.429 293.375 516.506 297.441C510.75 328.565 506.733 359.986 504.473 391.557L509.902 391.925C512.123 360.602 516.083 329.427 521.766 298.544C522.851 293.733 522.917 288.747 521.96 283.908C521.003 279.069 519.044 274.484 516.209 270.448C513.414 266.511 509.785 263.238 505.582 260.863C501.378 258.487 496.703 257.067 491.888 256.704C470.678 255.29 448.606 272.527 445.339 294.642C439.506 328.918 435.574 363.492 433.561 398.203Z" fill="#263238"/>
    <path opacity="0.3" d="M433.561 398.203L438.99 398.67C440.974 364.191 444.868 329.848 450.656 295.801C451.698 290.299 453.822 285.059 456.904 280.384C459.987 275.709 463.967 271.692 468.614 268.567C470.577 267.151 472.716 265.996 474.977 265.131C479.132 263.351 483.593 262.391 488.113 262.303C489.948 262.304 491.781 262.431 493.599 262.685C497.701 263.315 501.615 264.835 505.067 267.139C506.684 268.377 508.233 269.704 509.704 271.113C510.482 271.916 511.205 272.771 511.868 273.672C514.252 277.093 515.897 280.974 516.695 285.067C517.494 289.16 517.429 293.375 516.506 297.441C510.75 328.565 506.733 359.986 504.473 391.557L509.902 391.925C512.123 360.602 516.083 329.427 521.766 298.544C522.851 293.733 522.917 288.747 521.96 283.908C521.003 279.069 519.044 274.484 516.209 270.448C513.414 266.511 509.785 263.238 505.582 260.863C501.378 258.487 496.703 257.067 491.888 256.704C470.678 255.29 448.606 272.527 445.339 294.642C439.506 328.918 435.574 363.492 433.561 398.203Z" fill="white"/>
    <path d="M510.001 394.922H385.089V392.024C385.089 389.275 386.181 386.639 388.124 384.695C390.068 382.751 392.704 381.659 395.453 381.659H499.623C502.372 381.659 505.008 382.751 506.952 384.695C508.895 386.639 509.987 389.275 509.987 392.024V394.922H510.001Z" fill="#263238"/>
    <path d="M505.774 504.041H512.405L506.975 394.937H498.52L505.774 504.041Z" fill="#263238"/>
    <path opacity="0.3" d="M505.774 504.041H512.405L506.975 394.937H498.52L505.774 504.041Z" fill="white"/>
    <path d="M461.417 504.041H468.048L464.428 394.937H455.987L461.417 504.041Z" fill="#263238"/>
    <path opacity="0.3" d="M461.417 504.041H468.048L464.428 394.937H455.987L461.417 504.041Z" fill="white"/>
    <path d="M427.028 504.041H433.66L439.089 394.937H430.648L427.028 504.041Z" fill="#263238"/>
    <path opacity="0.3" d="M427.028 504.041H433.66L439.089 394.937H430.648L427.028 504.041Z" fill="white"/>
    <path d="M382.671 504.041H389.316L396.556 394.937H388.1L382.671 504.041Z" fill="#263238"/>
    <path opacity="0.3" d="M382.671 504.041H389.316L396.556 394.937H388.1L382.671 504.041Z" fill="white"/>
    <path d="M379.645 399.758H453.866V390.101H379.645V399.758Z" fill="#263238"/>
    <path opacity="0.7" d="M379.645 399.758H453.866V390.101H379.645V399.758Z" fill="white"/>
    <path d="M453.866 399.758H515.445V390.101H453.866V399.758Z" fill="#263238"/>
    <path opacity="0.4" d="M453.866 399.758H515.445V390.101H453.866V399.758Z" fill="white"/>
    <path d="M431.553 240.966C418.063 243.624 391.339 255.106 391.169 254.484C391.169 254.484 368.672 249.153 359.425 238.93C359.425 238.93 350.587 237.841 345.963 236.922C349.315 244.826 355.861 254.413 363.129 258.98C372.363 264.778 374.88 266.531 384.014 270.01C395.439 274.365 412.93 269.741 424.257 265.103C428.428 263.392 432.741 261.214 435.158 257.425C437.576 253.635 435.3 243.497 431.553 240.966Z" fill="#407BFF"/>
    <path opacity="0.7" d="M431.553 240.966C418.063 243.624 391.339 255.106 391.169 254.484C391.169 254.484 368.672 249.153 359.425 238.93C359.425 238.93 350.587 237.841 345.963 236.922C349.315 244.826 355.861 254.413 363.129 258.98C372.363 264.778 374.88 266.531 384.014 270.01C395.439 274.365 412.93 269.741 424.257 265.103C428.428 263.392 432.741 261.214 435.158 257.425C437.576 253.635 435.3 243.497 431.553 240.966Z" fill="white"/>
    <path d="M395.722 240.302H362.111C357.417 223.334 366.82 206.267 362.111 189.256H395.722C400.431 206.267 391.013 223.291 395.722 240.302Z" fill="#407BFF"/>
    <g opacity="0.7">
        <path opacity="0.7" d="M395.722 240.302H362.111C357.417 223.334 366.82 206.267 362.111 189.256H395.722C400.431 206.267 391.013 223.291 395.722 240.302Z" fill="white"/>
    </g>
    <path d="M367.371 231.252L361.984 233.839C361.386 235.602 360.248 237.13 358.732 238.209C357.22 239.061 355.617 239.74 353.952 240.231C352.76 240.606 351.485 240.627 350.281 240.294C349.077 239.96 347.994 239.285 347.165 238.35C346.804 237.986 346.56 237.522 346.464 237.018C346.368 236.514 346.425 235.993 346.628 235.522L351.789 225.879C352.08 225.336 352.494 224.868 352.997 224.512C353.5 224.156 354.079 223.922 354.688 223.828L363.172 222.485C363.7 222.396 364.243 222.453 364.741 222.65C365.24 222.847 365.675 223.176 366 223.602L368.488 226.868C368.744 227.217 368.92 227.618 369.003 228.043C369.085 228.467 369.073 228.905 368.966 229.324C368.859 229.743 368.661 230.134 368.385 230.467C368.109 230.8 367.763 231.068 367.371 231.252Z" fill="#CE7A63"/>
    <path d="M480.505 320.772L488.466 349.816L444.745 359.191L418.346 345.206L425.727 320.221L480.505 320.772Z" fill="#407BFF"/>
    <path opacity="0.1" d="M480.505 320.772L488.466 349.816L444.745 359.191L418.346 345.206L425.727 320.221L480.505 320.772Z" fill="black"/>
    <path d="M421.471 257.665C420.676 265.108 420.643 272.613 421.372 280.063C421.782 290.074 423.96 300.594 426.689 316.827C432.161 320.037 459.889 318.708 477.593 316.417C476.518 302.277 478.285 285.988 487.901 254.046C490.135 246.636 485.157 239.524 477.211 238.774C475.09 238.562 472.827 238.393 470.523 238.294C462.425 237.756 454.3 237.756 446.202 238.294C443.614 238.534 440.814 238.845 438.199 239.17C428.767 240.372 423.21 247.64 421.471 257.665Z" fill="#407BFF"/>
    <path d="M425.727 320.221C443.609 322.191 461.656 322.153 479.53 320.108C479.695 320.071 479.852 320.002 479.991 319.904C480.129 319.807 480.247 319.683 480.338 319.54C480.429 319.396 480.49 319.237 480.519 319.07C480.548 318.903 480.543 318.732 480.505 318.566V318.397C480.067 317.364 479.615 316.332 479.205 315.3C479.114 315.072 478.952 314.881 478.743 314.753C478.534 314.626 478.289 314.569 478.045 314.593C460.855 316.474 443.511 316.474 426.321 314.593C426.171 314.573 426.019 314.583 425.874 314.622C425.728 314.661 425.591 314.729 425.472 314.821C425.352 314.912 425.252 315.027 425.177 315.158C425.102 315.289 425.053 315.433 425.034 315.583C425.041 315.611 425.041 315.64 425.034 315.668C424.921 316.742 424.822 317.803 424.723 318.877C424.703 319.035 424.715 319.196 424.758 319.349C424.801 319.503 424.874 319.646 424.972 319.771C425.071 319.896 425.194 320 425.333 320.077C425.472 320.154 425.625 320.203 425.784 320.221H425.727Z" fill="#407BFF"/>
    <path d="M445.565 237.855C432.345 254.823 431.425 296.762 434.748 379.142C435.045 386.325 428.159 385.802 421.414 384.416C411.375 382.338 407.387 383.087 407.387 383.087C407.387 383.087 423.408 341.021 420.806 303.295C418.205 265.57 420.014 252.236 426.137 245.321C432.26 238.407 445.565 237.855 445.565 237.855Z" fill="#407BFF"/>
    <path opacity="0.7" d="M445.565 237.855C432.345 254.823 431.425 296.762 434.748 379.142C435.031 386.325 428.498 385.548 421.4 384.416C416.776 383.573 412.088 383.129 407.387 383.087C407.387 383.087 423.408 341.021 420.806 303.295C418.205 265.57 420.014 252.236 426.137 245.321C432.26 238.407 445.565 237.855 445.565 237.855Z" fill="white"/>
    <path d="M468.84 210.89C466.733 218.682 464.131 233.062 469.222 238.294C469.222 238.294 462.505 243.681 448.266 248.87C444.024 247.782 444.915 238.294 444.915 238.294C453.809 236.201 454.063 229.81 452.989 223.659L468.84 210.89Z" fill="#CE7A63"/>
    <path opacity="0.2" d="M462.378 216.094L452.975 223.645C453.239 225.043 453.381 226.463 453.399 227.887C456.779 227.406 461.629 223.758 462.251 220.251C462.532 218.883 462.575 217.476 462.378 216.094Z" fill="black"/>
    <path d="M454.247 182.257C444.989 194.772 440.995 210.414 443.119 225.836C438.651 217.352 434.635 221.976 434.31 212.417C434.169 207.61 436.671 188.111 438.806 183.798C440.942 179.485 445.311 176.007 450.118 176.205C451.855 176.215 453.521 176.894 454.771 178.1C455.944 179.358 455.308 180.885 454.247 182.257Z" fill="#263238"/>
    <path d="M475.528 195.181C473.167 207.822 472.417 213.223 465.163 219.219C454.304 228.297 439.4 223.461 437.93 210.636C436.643 199.027 440.758 180.305 453.781 176.134C456.552 175.121 459.544 174.872 462.445 175.411C465.345 175.95 468.048 177.258 470.27 179.198C472.492 181.139 474.153 183.64 475.078 186.442C476.002 189.243 476.158 192.242 475.528 195.124V195.181Z" fill="#CE7A63"/>
    <path d="M453.583 198.08C453.286 199.112 452.48 199.833 451.829 199.691C451.179 199.55 450.854 198.589 451.151 197.556C451.448 196.524 452.254 195.789 452.918 195.93C453.583 196.072 453.894 197.033 453.583 198.08Z" fill="#263238"/>
    <path d="M442.836 195.492C442.54 196.524 441.748 197.245 441.083 197.104C440.419 196.962 440.108 195.987 440.419 194.969C440.73 193.951 441.507 193.201 442.172 193.357C442.836 193.512 443.148 194.488 442.836 195.492Z" fill="#263238"/>
    <path d="M442.455 193.47L440.192 192.211C440.192 192.211 440.899 194.488 442.455 193.47Z" fill="#263238"/>
    <path d="M445.848 197.966C444.239 200.131 442.362 202.084 440.263 203.778C440.684 204.276 441.214 204.671 441.813 204.931C442.411 205.191 443.062 205.309 443.713 205.277L445.848 197.966Z" fill="#BA4D3C"/>
    <path d="M448.493 210.395C447.901 210.367 447.314 210.282 446.739 210.141C446.7 210.134 446.663 210.12 446.63 210.098C446.597 210.076 446.569 210.048 446.548 210.014C446.526 209.981 446.512 209.944 446.506 209.905C446.5 209.865 446.503 209.826 446.513 209.787C446.539 209.707 446.594 209.64 446.667 209.598C446.74 209.556 446.827 209.543 446.909 209.561C448.222 209.851 449.583 209.842 450.892 209.536C452.201 209.231 453.425 208.635 454.474 207.794C454.532 207.736 454.611 207.703 454.693 207.703C454.775 207.703 454.854 207.736 454.912 207.794C454.967 207.854 454.997 207.932 454.997 208.013C454.997 208.094 454.967 208.172 454.912 208.232C453.113 209.721 450.826 210.491 448.493 210.395Z" fill="#263238"/>
    <path d="M444.703 177.831C448.662 172.387 459.423 170.902 465.729 172.401C488.07 177.732 477.819 196.298 490.757 206.733C486.996 213.478 483.376 212.05 478.992 215.09C476.433 216.872 469.646 222.429 466.577 222.16C466.733 215.839 469.504 208.571 468.218 202.364C467.096 196.187 464.37 190.413 460.313 185.622C456.199 181.097 450.642 177.52 444.703 177.831Z" fill="#263238"/>
    <path opacity="0.2" d="M444.703 177.831C448.662 172.387 459.423 170.902 465.729 172.401C488.07 177.732 477.819 196.298 490.757 206.733C486.996 213.478 483.376 212.05 478.992 215.09C476.433 216.872 469.646 222.429 466.577 222.16C466.733 215.839 469.504 208.571 468.218 202.364C467.096 196.187 464.37 190.413 460.313 185.622C456.199 181.097 450.642 177.52 444.703 177.831Z" fill="black"/>
    <path d="M444.703 177.831C448.662 172.387 459.423 170.902 465.729 172.401C488.07 177.732 477.819 196.298 490.757 206.733C486.996 213.478 483.376 212.05 478.992 215.09C476.433 216.872 469.646 222.429 466.577 222.16C466.733 215.839 469.504 208.571 468.218 202.364C467.096 196.187 464.37 190.413 460.313 185.622C456.199 181.097 450.642 177.52 444.703 177.831Z" fill="#263238"/>
    <path opacity="0.1" d="M444.703 177.831C448.662 172.387 459.423 170.902 465.729 172.401C488.07 177.732 477.819 196.298 490.757 206.733C486.996 213.478 483.376 212.05 478.992 215.09C476.433 216.872 469.646 222.429 466.577 222.16C466.733 215.839 469.504 208.571 468.218 202.364C467.096 196.187 464.37 190.413 460.313 185.622C456.199 181.097 450.642 177.52 444.703 177.831Z" fill="black"/>
    <path d="M474.779 207.977C474.13 209.024 473.269 209.922 472.25 210.614C471.232 211.306 470.08 211.776 468.868 211.993C465.856 212.417 464.98 208.911 466.379 205.687C467.68 202.859 470.692 199.069 473.45 200.144C476.207 201.218 476.518 205.22 474.779 207.977Z" fill="#CE7A63"/>
    <path d="M458.405 193.95C458.328 193.927 458.259 193.885 458.202 193.828C458.145 193.771 458.103 193.702 458.079 193.625C457.819 192.906 457.384 192.262 456.814 191.751C456.244 191.241 455.557 190.879 454.813 190.698C454.665 190.677 454.532 190.598 454.441 190.479C454.351 190.36 454.312 190.21 454.332 190.062C454.326 190.039 454.326 190.014 454.332 189.991C454.37 189.825 454.47 189.679 454.612 189.584C454.754 189.489 454.928 189.453 455.096 189.482C456.042 189.691 456.92 190.137 457.647 190.777C458.374 191.418 458.927 192.232 459.253 193.144C459.308 193.302 459.298 193.475 459.227 193.625C459.156 193.776 459.028 193.893 458.871 193.95C458.721 194.009 458.555 194.009 458.405 193.95Z" fill="#263238"/>
    <path d="M440.461 189.369C440.383 189.367 440.307 189.35 440.237 189.318C440.166 189.287 440.103 189.241 440.05 189.184C439.997 189.128 439.956 189.061 439.93 188.988C439.903 188.916 439.891 188.838 439.895 188.761C439.9 188.671 439.925 188.583 439.969 188.505C440.013 188.426 440.075 188.359 440.15 188.309C440.904 187.622 441.808 187.119 442.789 186.84C443.77 186.56 444.803 186.511 445.806 186.697C445.955 186.74 446.083 186.839 446.162 186.973C446.241 187.107 446.265 187.266 446.23 187.418C446.172 187.577 446.058 187.709 445.91 187.79C445.762 187.87 445.589 187.894 445.424 187.856C444.633 187.723 443.821 187.773 443.052 188C442.283 188.228 441.575 188.629 440.984 189.171C440.916 189.24 440.834 189.292 440.744 189.327C440.654 189.361 440.557 189.375 440.461 189.369Z" fill="#263238"/>
    <path d="M453.201 196.057L450.939 194.799C450.939 194.799 451.646 197.019 453.201 196.057Z" fill="#263238"/>
    <path d="M446.626 177.294C445.666 178.337 444.9 179.544 444.364 180.857C444.097 181.512 443.979 182.219 444.019 182.925C444.058 183.632 444.253 184.321 444.59 184.943C445.303 185.975 446.321 186.756 447.503 187.177C448.659 187.683 449.869 188.057 451.108 188.294C450.456 187.752 449.975 187.031 449.724 186.221C449.473 185.41 449.463 184.544 449.694 183.727C449.832 184.528 450.141 185.29 450.599 185.961C451.058 186.632 451.656 187.197 452.353 187.616C453.625 188.365 455.053 188.775 456.368 189.44C460.511 191.518 468.232 202.406 462.519 225.044C467.567 223.178 474.651 205.404 473.478 200.144C472.304 194.884 472.064 181.366 458.617 176.643C454.983 175.385 450.316 176.247 446.626 177.294Z" fill="#263238"/>
    <path d="M381.313 491.965L369.167 493.139L361.97 458.92L376.294 457.266L381.313 491.965Z" fill="#CE7A63"/>
    <path d="M364.147 490.311C365.273 489.165 366.786 488.479 368.389 488.388L381.412 487.483C381.706 487.446 382.002 487.524 382.239 487.7C382.476 487.877 382.636 488.138 382.685 488.43L385.202 500.52C385.345 501.183 385.221 501.877 384.855 502.449C384.49 503.021 383.913 503.425 383.251 503.574H383.194C378.273 504.847 375.177 503.814 367.64 504.338C363.002 504.663 353.147 506.501 346.826 505.455C340.505 504.408 341.311 498.144 343.998 498.017C353.698 497.706 361.645 492.842 364.147 490.311Z" fill="#263238"/>
    <g opacity="0.2">
        <path opacity="0.2" d="M361.97 458.934L366.155 478.829L379.037 476.143L376.308 457.28L361.97 458.934Z" fill="black"/>
    </g>
    <path d="M438.1 387.98C437.619 387.98 437.124 387.98 436.615 387.98C435.787 387.968 434.961 387.906 434.14 387.796L369.096 384.317C379.602 393.947 381.327 471.109 381.327 471.109L378.217 471.773L364.077 474.785L361.489 475.337C361.489 475.337 355.593 450.068 348.763 421.081C345.313 406.404 340.845 391.232 338.865 376.668C338.327 372.796 338.015 368.896 337.932 364.988C337.932 363.786 337.932 362.598 337.932 361.411C337.925 361.288 337.925 361.165 337.932 361.043C337.932 360.534 337.932 360.053 338.045 359.629C338.373 357.276 339.352 355.062 340.873 353.238L341.354 352.686C341.512 352.502 341.682 352.327 341.863 352.163C342.204 351.811 342.562 351.475 342.937 351.159C343.333 350.834 343.729 350.509 344.153 350.198L345.242 349.448C345.695 349.165 346.147 348.897 346.656 348.628C346.894 348.487 347.139 348.359 347.391 348.246C348.127 347.85 348.89 347.483 349.696 347.143L350.389 346.846L351.337 346.493C351.619 346.366 351.902 346.267 352.185 346.168C353.047 345.857 353.938 345.56 354.857 345.319L355.324 345.178H355.451C380.126 338.193 422.093 343.58 422.093 343.58C422.093 343.58 433.179 335.379 444.957 333.823L446.626 334.007L451.872 334.587C451.947 334.58 452.023 334.58 452.098 334.587C469.448 364.804 458.687 387.753 438.1 387.98Z" fill="#407BFF"/>
    <g opacity="0.1">
        <path opacity="0.1" d="M438.1 387.98C437.619 387.98 437.124 387.98 436.615 387.98C435.787 387.968 434.961 387.906 434.14 387.796L369.096 384.317C379.602 393.947 381.327 471.109 381.327 471.109L378.217 471.773L364.077 474.785L361.489 475.337C361.489 475.337 355.593 450.068 348.763 421.081C345.313 406.404 340.845 391.232 338.865 376.668C338.327 372.796 338.015 368.896 337.932 364.988C337.932 363.786 337.932 362.598 337.932 361.411C337.925 361.288 337.925 361.165 337.932 361.043C337.932 360.534 337.932 360.053 338.045 359.629C338.373 357.276 339.352 355.062 340.873 353.238L341.354 352.686C341.512 352.502 341.682 352.327 341.863 352.163C342.204 351.811 342.562 351.475 342.937 351.159C343.333 350.834 343.729 350.509 344.153 350.198L345.242 349.448C345.695 349.165 346.147 348.897 346.656 348.628C346.894 348.487 347.139 348.359 347.391 348.246C348.127 347.85 348.89 347.483 349.696 347.143L350.389 346.846L351.337 346.493C351.619 346.366 351.902 346.267 352.185 346.168C353.047 345.857 353.938 345.56 354.857 345.319L355.324 345.178H355.451C380.126 338.193 422.093 343.58 422.093 343.58C422.093 343.58 433.179 335.379 444.957 333.823L446.626 334.007L451.872 334.587C451.947 334.58 452.023 334.58 452.098 334.587C469.448 364.804 458.687 387.753 438.1 387.98Z" fill="black"/>
    </g>
    <path d="M300.899 433.864L297.421 439.195L289.672 451.072L276.706 452.43L286.533 431.785L293.207 417.73L300.899 433.864Z" fill="#CE7A63"/>
    <path d="M279.972 443.536L290.704 450.238C290.945 450.373 291.128 450.591 291.219 450.852C291.31 451.112 291.303 451.397 291.199 451.652L285.939 463.926C285.791 464.219 285.586 464.481 285.336 464.695C285.087 464.909 284.797 465.072 284.485 465.175C284.172 465.277 283.843 465.317 283.515 465.292C283.187 465.267 282.867 465.177 282.574 465.029H282.503C277.497 461.988 275.249 460.278 268.9 456.545L253.106 447.382C247.704 444.215 250.617 438.757 253.177 439.591C264.489 443.352 272.167 443.833 277.215 443.041C278.163 442.873 279.141 443.049 279.972 443.536Z" fill="#263238"/>
    <g opacity="0.2">
        <path opacity="0.2" d="M300.899 433.864L297.435 439.195H297.421L286.533 431.785L293.207 417.73L300.899 433.864Z" fill="black"/>
    </g>
    <path d="M442.285 389.167C440.853 388.996 439.435 388.722 438.043 388.347C437.562 388.234 437.067 388.093 436.558 387.937C424.624 384.501 407.444 375.098 391.452 365.836C376.718 357.352 363.044 348.868 355.465 345.418H355.338L354.871 345.56C353.952 345.814 353.061 346.111 352.199 346.422C351.91 346.507 351.626 346.611 351.35 346.733L350.403 347.087L349.71 347.384C348.904 347.723 348.141 348.105 347.405 348.487C347.151 348.6 346.911 348.741 346.67 348.868C346.189 349.137 345.737 349.406 345.256 349.689L344.167 350.452C343.743 350.763 343.347 351.074 342.951 351.4C342.576 351.716 342.218 352.051 341.877 352.403C341.693 352.573 341.523 352.757 341.368 352.927L340.887 353.478C339.366 355.303 338.387 357.517 338.059 359.869C338.059 360.35 337.96 360.845 337.946 361.283C337.946 362.471 337.946 363.659 337.946 364.861C338.015 368.791 338.313 372.715 338.837 376.611V376.908C321.077 408.935 302.61 437.979 302.61 437.979L299.471 435.815L288.159 428.067L286.208 426.653C286.208 426.653 305.919 380.471 319.479 339.324C321.959 331.758 326.78 325.176 333.247 320.529C339.713 315.883 347.489 313.413 355.451 313.476C388.92 313.773 432.868 332.268 432.868 332.268L444.929 333.555L446.598 333.739L451.843 334.318C451.919 334.312 451.994 334.312 452.07 334.318C454.898 334.629 458.065 334.856 461.133 335.082C464.524 335.327 467.755 336.619 470.379 338.779C473.004 340.94 474.892 343.863 475.783 347.143C484.776 379.92 463.382 391.755 442.285 389.167Z" fill="#407BFF"/>
    <path d="M442.285 389.167C440.853 388.996 439.435 388.722 438.043 388.347C437.562 388.234 437.067 388.093 436.558 387.937C424.624 384.501 407.444 375.098 391.452 365.836C376.718 357.352 363.044 348.868 355.465 345.418H355.338L354.871 345.56C353.952 345.814 353.061 346.111 352.199 346.422C351.91 346.507 351.626 346.611 351.35 346.733L350.403 347.087L349.71 347.384C348.904 347.723 348.141 348.105 347.405 348.487C347.151 348.6 346.911 348.741 346.67 348.868C346.189 349.137 345.737 349.406 345.256 349.689L344.167 350.452C343.743 350.763 343.347 351.074 342.951 351.4C342.576 351.716 342.218 352.051 341.877 352.403C341.693 352.573 341.523 352.757 341.368 352.927L340.887 353.478C339.366 355.303 338.387 357.517 338.059 359.869C338.059 360.35 337.96 360.845 337.946 361.283C337.946 362.471 337.946 363.659 337.946 364.861C338.015 368.791 338.313 372.715 338.837 376.611V376.908C321.077 408.935 302.61 437.979 302.61 437.979L299.471 435.815L288.159 428.067L286.208 426.653C286.208 426.653 305.919 380.471 319.479 339.324C321.959 331.758 326.78 325.176 333.247 320.529C339.713 315.883 347.489 313.413 355.451 313.476C388.92 313.773 432.868 332.268 432.868 332.268L444.929 333.555L446.598 333.739L451.843 334.318C451.919 334.312 451.994 334.312 452.07 334.318C454.898 334.629 458.065 334.856 461.133 335.082C464.524 335.327 467.755 336.619 470.379 338.779C473.004 340.94 474.892 343.863 475.783 347.143C484.776 379.92 463.382 391.755 442.285 389.167Z" fill="#407BFF"/>
    <path d="M355.395 345.065L354.928 345.192L355.395 345.065Z" fill="#407BFF"/>
    <path d="M469.773 237.078C469.773 237.078 460.568 245.25 457.825 264.976C453.441 296.777 455.732 358.088 457.372 393.112C457.431 394.308 457.772 395.472 458.366 396.511C458.961 397.55 459.792 398.433 460.793 399.089C461.794 399.745 462.936 400.156 464.125 400.287C465.315 400.418 466.518 400.266 467.638 399.843C478.568 395.771 496.427 398.966 504.402 392.052C504.982 381.504 486.628 327.602 488.41 299.704C490.191 271.805 493.67 247.499 490.064 242.239C486.458 236.979 469.773 237.078 469.773 237.078Z" fill="#407BFF"/>
    <path opacity="0.7" d="M469.773 237.078C469.773 237.078 460.568 245.25 457.825 264.976C453.442 296.777 455.973 358.088 457.627 393.112C457.684 394.307 458.022 395.472 458.615 396.51C459.208 397.549 460.038 398.433 461.038 399.09C462.038 399.746 463.179 400.157 464.368 400.288C465.557 400.418 466.76 400.266 467.879 399.843C478.809 395.771 496.427 398.966 504.445 392.052C505.024 381.504 486.671 327.602 488.452 299.704C490.234 271.805 493.712 247.499 490.107 242.239C486.501 236.979 469.773 237.078 469.773 237.078Z" fill="white"/>
    <path d="M469.363 278.932C469.302 278.928 469.242 278.913 469.187 278.886C469.131 278.859 469.082 278.822 469.041 278.776C469 278.73 468.969 278.676 468.949 278.618C468.929 278.56 468.921 278.498 468.925 278.437C468.928 278.354 468.954 278.274 468.998 278.205C469.043 278.135 469.106 278.079 469.179 278.041L471.145 277.08C472.981 276.2 474.506 274.781 475.517 273.013C476.527 271.245 476.975 269.211 476.801 267.182L475.203 248.05C475.085 246.626 474.49 245.283 473.515 244.237C472.54 243.192 471.242 242.505 469.829 242.288C468.416 242.071 466.971 242.336 465.727 243.04C464.483 243.744 463.513 244.846 462.972 246.17L455.676 263.901C454.893 265.781 454.7 267.854 455.121 269.847C455.543 271.839 456.56 273.656 458.037 275.058L459.635 276.571C459.72 276.66 459.768 276.779 459.768 276.903C459.768 277.027 459.72 277.146 459.635 277.235C459.591 277.279 459.54 277.314 459.483 277.338C459.426 277.362 459.364 277.374 459.303 277.374C459.241 277.374 459.179 277.362 459.122 277.338C459.065 277.314 459.014 277.279 458.97 277.235L457.372 275.722C455.76 274.187 454.653 272.197 454.199 270.017C453.744 267.838 453.963 265.571 454.827 263.519L462.18 245.83C462.806 244.315 463.923 243.055 465.351 242.251C466.78 241.447 468.437 241.146 470.057 241.398C471.677 241.649 473.165 242.437 474.283 243.636C475.401 244.835 476.083 246.374 476.221 248.008L477.805 267.111C477.987 269.332 477.488 271.556 476.374 273.486C475.26 275.416 473.584 276.961 471.569 277.914L469.603 278.861C469.535 278.913 469.449 278.939 469.363 278.932Z" fill="#263238"/>
    <path d="M475.952 252.236C475.839 252.23 475.731 252.184 475.649 252.106C475.566 252.029 475.513 251.924 475.5 251.812C475.181 250.312 474.414 248.944 473.301 247.89C472.188 246.836 470.78 246.145 469.265 245.909C467.75 245.672 466.199 245.902 464.818 246.568C463.436 247.233 462.289 248.302 461.53 249.634C461.517 249.703 461.489 249.768 461.449 249.825C461.408 249.882 461.356 249.929 461.295 249.964C461.234 249.998 461.167 250.019 461.097 250.025C461.028 250.031 460.958 250.021 460.892 249.998C460.826 249.974 460.767 249.936 460.717 249.886C460.668 249.837 460.63 249.777 460.606 249.712C460.582 249.646 460.572 249.576 460.578 249.507C460.583 249.437 460.604 249.37 460.639 249.309C461.477 247.78 462.765 246.546 464.329 245.775C465.893 245.005 467.657 244.735 469.38 245.002C471.103 245.269 472.702 246.061 473.959 247.269C475.216 248.478 476.07 250.044 476.405 251.755C476.417 251.877 476.381 251.998 476.304 252.093C476.227 252.188 476.116 252.25 475.995 252.264L475.952 252.236Z" fill="#263238"/>
    <path d="M469.858 242.281C469.797 242.278 469.738 242.262 469.683 242.235C469.629 242.208 469.58 242.17 469.541 242.124C469.501 242.078 469.471 242.024 469.453 241.966C469.434 241.908 469.428 241.847 469.434 241.786C469.632 239.481 469.434 235.268 467.27 234.122C467.217 234.093 467.169 234.053 467.131 234.005C467.092 233.956 467.064 233.901 467.047 233.842C467.03 233.783 467.024 233.721 467.031 233.66C467.038 233.599 467.057 233.54 467.087 233.486C467.116 233.432 467.156 233.385 467.204 233.346C467.252 233.308 467.308 233.279 467.367 233.262C467.426 233.245 467.488 233.24 467.549 233.247C467.61 233.254 467.669 233.272 467.723 233.302C470.834 234.999 470.381 241.164 470.31 241.871C470.3 241.983 470.248 242.088 470.164 242.164C470.08 242.24 469.971 242.282 469.858 242.281Z" fill="#263238"/>
    <path d="M460.342 277.051C460.2 277.942 459.621 278.578 459.041 278.465C458.461 278.352 458.108 277.603 458.249 276.726C458.39 275.849 458.956 275.199 459.536 275.312C460.115 275.425 460.469 276.189 460.342 277.051Z" fill="#263238"/>
    <path d="M470.424 278.635C470.296 279.498 469.717 280.134 469.137 280.049C468.557 279.964 468.204 279.172 468.345 278.296C468.486 277.419 469.052 276.797 469.632 276.882C470.212 276.967 470.565 277.744 470.424 278.635Z" fill="#263238"/>
    <path d="M444.929 260.295C444.449 262.261 443.006 263.604 441.762 263.293C440.518 262.982 439.811 261.172 440.348 259.15C440.885 257.128 442.271 255.841 443.515 256.167C444.76 256.492 445.41 258.33 444.929 260.295Z" fill="#263238"/>
    <path d="M440.913 259.617H440.814C440.753 259.613 440.693 259.598 440.638 259.571C440.583 259.544 440.533 259.506 440.493 259.46C440.452 259.414 440.421 259.361 440.401 259.303C440.381 259.245 440.372 259.183 440.376 259.122C440.871 251.204 445.58 238.096 450.741 233.811C450.783 233.766 450.835 233.729 450.892 233.704C450.949 233.679 451.011 233.666 451.073 233.666C451.135 233.666 451.197 233.679 451.254 233.704C451.312 233.729 451.363 233.766 451.405 233.811C451.449 233.855 451.484 233.907 451.508 233.964C451.532 234.021 451.544 234.082 451.544 234.144C451.544 234.206 451.532 234.267 451.508 234.324C451.484 234.381 451.449 234.433 451.405 234.476C451.374 234.512 451.335 234.541 451.292 234.561C446.315 238.803 441.734 251.402 441.267 259.193C441.263 259.292 441.226 259.388 441.162 259.465C441.098 259.542 441.011 259.595 440.913 259.617Z" fill="#263238"/>
    <path d="M446.329 260.493C446.004 262.176 444.759 263.321 443.501 263.138C442.837 262.877 442.297 262.375 441.987 261.733C441.678 261.09 441.623 260.355 441.832 259.673C442.144 257.976 443.402 256.845 444.66 257.029C445.324 257.29 445.865 257.792 446.174 258.434C446.484 259.076 446.539 259.812 446.329 260.493Z" fill="white"/>
    <path d="M446.428 260.649C445.99 262.727 444.844 264.255 443.897 264.057C442.95 263.859 442.483 261.992 442.992 259.899C443.501 257.807 444.576 256.294 445.523 256.506C446.47 256.718 446.824 258.556 446.428 260.649Z" fill="#263238"/>
    <path d="M427.339 305.869L397.843 306.406C397.284 306.408 396.744 306.206 396.323 305.84C395.902 305.473 395.628 304.966 395.552 304.412L389.896 259.277C389.86 259.02 389.879 258.759 389.953 258.51C390.026 258.261 390.152 258.031 390.323 257.835C390.493 257.639 390.704 257.482 390.94 257.375C391.176 257.268 391.433 257.212 391.692 257.213L421.231 256.704C421.789 256.702 422.329 256.903 422.751 257.27C423.172 257.637 423.446 258.144 423.521 258.698L429.177 303.832C429.21 304.091 429.186 304.353 429.108 304.602C429.03 304.85 428.9 305.079 428.725 305.272C428.551 305.465 428.336 305.619 428.097 305.722C427.858 305.825 427.599 305.875 427.339 305.869Z" fill="#263238"/>
    <path d="M410.456 260.451L403.386 260.578C402.691 260.583 402.019 260.332 401.497 259.873C400.976 259.414 400.641 258.779 400.558 258.09L400.021 253.876L412.181 253.65L412.69 257.807C412.748 258.132 412.734 258.466 412.648 258.786C412.563 259.105 412.408 259.401 412.194 259.654C411.981 259.906 411.714 260.109 411.414 260.246C411.114 260.384 410.786 260.454 410.456 260.451Z" fill="#263238"/>
    <path opacity="0.7" d="M410.456 260.451L403.386 260.578C402.691 260.583 402.019 260.332 401.497 259.873C400.976 259.414 400.641 258.779 400.558 258.09L400.021 253.876L412.181 253.65L412.69 257.807C412.748 258.132 412.734 258.466 412.648 258.786C412.563 259.105 412.408 259.401 412.194 259.654C411.981 259.906 411.714 260.109 411.414 260.246C411.114 260.384 410.786 260.454 410.456 260.451Z" fill="white"/>
    <path d="M422.588 256.775H421.174C421.731 256.779 422.268 256.982 422.688 257.348C423.108 257.713 423.384 258.217 423.465 258.768L429.121 303.917C429.157 304.174 429.138 304.436 429.064 304.685C428.991 304.934 428.864 305.164 428.694 305.36C428.524 305.556 428.313 305.713 428.077 305.82C427.841 305.927 427.584 305.982 427.325 305.982H428.739C428.998 305.983 429.254 305.928 429.49 305.82C429.725 305.713 429.935 305.555 430.104 305.359C430.274 305.163 430.398 304.933 430.47 304.684C430.542 304.435 430.559 304.174 430.52 303.917L424.864 258.768C424.784 258.22 424.51 257.718 424.093 257.352C423.676 256.987 423.142 256.782 422.588 256.775Z" fill="white"/>
    <path opacity="0.2" d="M479.926 248.87C480.364 249.832 470.805 287.925 470.805 287.925L478.088 291.135L479.926 248.87Z" fill="black"/>
    <path d="M495.607 273.474C493.953 288.42 492.426 294.26 491.365 295.886C485.879 316.148 468.43 305.954 465.913 305.119C461.558 303.705 457.061 300.736 452.904 298.813C444.816 295.151 437.181 292.252 429.616 287.6L433.49 279.243C433.49 279.243 462.52 285.55 466.323 286.313C467.978 286.681 476.221 288.038 476.037 283.612C476.886 282.113 477.635 256.506 480.011 246.283C480.286 245.137 480.791 244.059 481.495 243.115L481.736 242.804C483.319 240.655 484.366 240.669 487.264 240.782C493.585 241.037 496.569 245.915 497.233 252.207C497.855 258.118 496.314 267.648 495.607 273.474Z" fill="#407BFF"/>
    <g opacity="0.7">
        <path opacity="0.7" d="M495.607 273.474C493.953 288.42 492.426 294.26 491.365 295.886C485.879 316.148 468.43 305.954 465.913 305.119C461.558 303.705 457.061 300.736 452.904 298.813C444.816 295.151 437.181 292.252 429.616 287.6L433.49 279.243C433.49 279.243 462.52 285.55 466.323 286.313C467.978 286.681 476.221 288.038 476.037 283.612C476.886 282.113 477.635 256.506 480.011 246.283C480.286 245.137 480.791 244.059 481.495 243.115L481.736 242.804C483.319 240.655 484.366 240.669 487.264 240.782C493.585 241.037 496.569 245.915 497.233 252.207C497.855 258.118 496.314 267.648 495.607 273.474Z" fill="white"/>
    </g>
    <path d="M433.829 280.233C434.056 281.251 434.072 282.306 433.875 283.33C433.678 284.355 433.272 285.328 432.684 286.19C432.095 287.052 431.336 287.783 430.453 288.34C429.57 288.896 428.582 289.265 427.551 289.424C425.239 289.764 422.897 289.854 420.566 289.692L420.029 275.34L431.015 277.49C431.701 277.622 432.333 277.953 432.833 278.44C433.333 278.928 433.679 279.551 433.829 280.233Z" fill="#CE7A63"/>
    <path d="M420.029 275.34L420.608 289.735L415.278 290.046C413.712 290.145 412.162 289.686 410.901 288.752C409.641 287.818 408.752 286.468 408.391 284.941L408.321 284.602C408.114 283.726 408.088 282.817 408.243 281.931C408.398 281.044 408.732 280.199 409.224 279.445C409.716 278.691 410.355 278.046 411.104 277.547C411.853 277.048 412.696 276.706 413.581 276.542L420.029 275.34Z" fill="#CE7A63"/>
    <path d="M290.139 267.054L286.307 305.911H292.571L290.139 267.054Z" fill="#263238"/>
    <path d="M336.9 305.685L291.92 305.869L289.729 267.069L334.694 266.871L336.9 305.685Z" fill="#407BFF"/>
    <path opacity="0.6" d="M336.9 305.685L291.92 305.869L289.729 267.069L334.694 266.871L336.9 305.685Z" fill="white"/>
    <path d="M334.694 266.871L289.729 267.068L289.304 259.801L334.284 259.617L334.694 266.871Z" fill="#263238"/>
    <path d="M296.035 257.369C296.014 257.048 295.872 256.748 295.639 256.528C295.405 256.308 295.097 256.184 294.777 256.181C294.621 256.178 294.467 256.208 294.324 256.269C294.181 256.329 294.052 256.419 293.946 256.532C293.839 256.645 293.758 256.779 293.706 256.926C293.654 257.072 293.634 257.228 293.645 257.383C293.645 257.807 293.886 261.752 293.914 262.176C293.935 262.498 294.076 262.8 294.309 263.022C294.542 263.245 294.85 263.372 295.172 263.378C295.327 263.378 295.48 263.347 295.622 263.286C295.764 263.224 295.892 263.135 295.998 263.022C296.104 262.909 296.186 262.776 296.239 262.631C296.291 262.485 296.313 262.331 296.304 262.176C296.289 261.837 296.063 257.708 296.035 257.369Z" fill="#407BFF"/>
    <path d="M304.689 257.34C304.671 257.018 304.531 256.714 304.297 256.491C304.063 256.267 303.753 256.142 303.43 256.138C303.274 256.138 303.12 256.17 302.977 256.232C302.834 256.294 302.705 256.385 302.599 256.499C302.493 256.613 302.411 256.748 302.36 256.895C302.308 257.043 302.287 257.199 302.299 257.354C302.299 257.779 302.539 261.724 302.568 262.148C302.593 262.469 302.737 262.77 302.973 262.99C303.208 263.21 303.518 263.333 303.84 263.336C303.995 263.336 304.148 263.305 304.29 263.243C304.432 263.182 304.56 263.092 304.666 262.98C304.772 262.867 304.854 262.734 304.907 262.588C304.959 262.443 304.981 262.288 304.972 262.134C304.943 261.794 304.717 257.68 304.689 257.34Z" fill="#407BFF"/>
    <path d="M313.356 257.298C313.332 256.977 313.187 256.676 312.952 256.456C312.716 256.236 312.406 256.113 312.084 256.11C311.929 256.108 311.774 256.138 311.631 256.198C311.488 256.259 311.36 256.348 311.253 256.462C311.147 256.575 311.065 256.709 311.013 256.855C310.961 257.002 310.941 257.157 310.953 257.312C310.953 257.736 311.207 261.681 311.221 262.106C311.243 262.43 311.386 262.733 311.622 262.956C311.858 263.179 312.169 263.305 312.494 263.307C312.649 263.306 312.803 263.273 312.945 263.21C313.087 263.147 313.215 263.056 313.321 262.942C313.426 262.829 313.508 262.694 313.56 262.548C313.613 262.402 313.635 262.247 313.625 262.091C313.597 261.752 313.371 257.637 313.356 257.298Z" fill="#407BFF"/>
    <path d="M322.01 257.27C321.989 256.946 321.846 256.642 321.61 256.419C321.374 256.196 321.062 256.07 320.738 256.068C320.583 256.069 320.431 256.102 320.29 256.164C320.149 256.226 320.022 256.316 319.916 256.428C319.811 256.54 319.729 256.673 319.676 256.817C319.622 256.962 319.599 257.116 319.606 257.27C319.606 257.694 319.861 261.653 319.889 262.077C319.911 262.397 320.052 262.698 320.285 262.918C320.519 263.138 320.827 263.262 321.148 263.265C321.303 263.267 321.457 263.237 321.6 263.177C321.743 263.116 321.872 263.027 321.978 262.914C322.085 262.8 322.167 262.666 322.218 262.52C322.27 262.373 322.291 262.218 322.279 262.063C322.265 261.724 322.024 257.609 322.01 257.27Z" fill="#407BFF"/>
    <path d="M330.664 257.227C330.643 256.907 330.501 256.607 330.268 256.387C330.034 256.166 329.726 256.042 329.405 256.039C329.25 256.037 329.096 256.067 328.953 256.128C328.81 256.188 328.681 256.278 328.575 256.391C328.468 256.504 328.386 256.638 328.335 256.784C328.283 256.931 328.262 257.086 328.274 257.241C328.274 257.666 328.515 261.611 328.543 262.035C328.558 262.357 328.697 262.662 328.932 262.883C329.167 263.105 329.478 263.227 329.801 263.223C329.957 263.225 330.111 263.195 330.254 263.134C330.397 263.074 330.526 262.984 330.632 262.871C330.739 262.758 330.82 262.624 330.872 262.478C330.924 262.331 330.944 262.176 330.933 262.021C330.876 261.681 330.678 257.567 330.664 257.227Z" fill="#407BFF"/>
    <g opacity="0.7">
        <path opacity="0.7" d="M296.035 257.369C296.014 257.048 295.872 256.748 295.639 256.528C295.405 256.308 295.097 256.184 294.777 256.181C294.621 256.178 294.467 256.208 294.324 256.269C294.181 256.329 294.052 256.419 293.946 256.532C293.839 256.645 293.758 256.779 293.706 256.926C293.654 257.072 293.634 257.228 293.645 257.383C293.645 257.807 293.886 261.752 293.914 262.176C293.935 262.498 294.076 262.8 294.309 263.022C294.542 263.245 294.85 263.372 295.172 263.378C295.327 263.378 295.48 263.347 295.622 263.286C295.764 263.224 295.892 263.135 295.998 263.022C296.104 262.909 296.186 262.776 296.239 262.631C296.291 262.485 296.313 262.331 296.304 262.176C296.289 261.837 296.063 257.708 296.035 257.369Z" fill="white"/>
        <path opacity="0.7" d="M304.689 257.34C304.671 257.018 304.531 256.714 304.297 256.491C304.063 256.267 303.753 256.142 303.43 256.138C303.274 256.138 303.12 256.17 302.977 256.232C302.834 256.294 302.705 256.385 302.599 256.499C302.493 256.613 302.411 256.748 302.36 256.895C302.308 257.043 302.287 257.199 302.299 257.354C302.299 257.779 302.539 261.724 302.568 262.148C302.593 262.469 302.737 262.77 302.973 262.99C303.208 263.21 303.518 263.333 303.84 263.336C303.995 263.336 304.148 263.305 304.29 263.243C304.432 263.182 304.56 263.092 304.666 262.98C304.772 262.867 304.854 262.734 304.907 262.588C304.959 262.443 304.981 262.288 304.972 262.134C304.943 261.794 304.717 257.68 304.689 257.34Z" fill="white"/>
        <path opacity="0.7" d="M313.356 257.298C313.332 256.977 313.187 256.676 312.952 256.456C312.716 256.236 312.406 256.113 312.084 256.11C311.929 256.108 311.774 256.138 311.631 256.198C311.488 256.259 311.36 256.348 311.253 256.462C311.147 256.575 311.065 256.709 311.013 256.855C310.961 257.002 310.941 257.157 310.953 257.312C310.953 257.736 311.207 261.681 311.221 262.106C311.243 262.43 311.386 262.733 311.622 262.956C311.858 263.179 312.169 263.305 312.494 263.307C312.649 263.306 312.803 263.273 312.945 263.21C313.087 263.147 313.215 263.056 313.321 262.942C313.426 262.829 313.508 262.694 313.56 262.548C313.613 262.402 313.635 262.247 313.625 262.091C313.597 261.752 313.371 257.637 313.356 257.298Z" fill="white"/>
        <path opacity="0.7" d="M322.01 257.27C321.989 256.946 321.846 256.642 321.61 256.419C321.374 256.196 321.062 256.07 320.738 256.068C320.583 256.069 320.431 256.102 320.29 256.164C320.149 256.226 320.022 256.316 319.916 256.428C319.811 256.54 319.729 256.673 319.676 256.817C319.622 256.962 319.599 257.116 319.606 257.27C319.606 257.694 319.861 261.653 319.889 262.077C319.911 262.397 320.052 262.698 320.285 262.918C320.519 263.138 320.827 263.262 321.148 263.265C321.303 263.267 321.457 263.237 321.6 263.177C321.743 263.116 321.872 263.027 321.978 262.914C322.085 262.8 322.167 262.666 322.218 262.52C322.27 262.373 322.291 262.218 322.279 262.063C322.265 261.724 322.024 257.609 322.01 257.27Z" fill="white"/>
        <path opacity="0.7" d="M330.664 257.227C330.643 256.907 330.501 256.607 330.268 256.387C330.034 256.166 329.726 256.042 329.405 256.039C329.25 256.037 329.096 256.067 328.953 256.128C328.81 256.188 328.681 256.278 328.575 256.391C328.468 256.504 328.386 256.638 328.335 256.784C328.283 256.931 328.262 257.086 328.274 257.241C328.274 257.666 328.515 261.611 328.543 262.035C328.558 262.357 328.697 262.662 328.932 262.883C329.167 263.105 329.478 263.227 329.801 263.223C329.957 263.225 330.111 263.195 330.254 263.134C330.397 263.074 330.526 262.984 330.632 262.871C330.739 262.758 330.82 262.624 330.872 262.478C330.924 262.331 330.944 262.176 330.933 262.021C330.876 261.681 330.678 257.567 330.664 257.227Z" fill="white"/>
    </g>
    <path d="M338.158 304.596L293.179 304.78L289.729 267.069L334.694 266.871L338.158 304.596Z" fill="#407BFF"/>
    <path opacity="0.8" d="M338.158 304.596L293.179 304.78L289.729 267.069L334.694 266.871L338.158 304.596Z" fill="white"/>
    <path d="M325.178 276.189L302.907 276.274L302.299 269.642L324.57 269.543L325.178 276.189Z" fill="#407BFF"/>
    <path opacity="0.6" d="M325.178 276.189L302.907 276.274L302.299 269.642L324.57 269.543L325.178 276.189Z" fill="white"/>
    <path d="M299.952 284.871L293.999 284.899L293.448 278.946L299.4 278.918L299.952 284.871Z" fill="white"/>
    <path d="M308.379 284.828L302.44 284.857L301.889 278.918L307.842 278.89L308.379 284.828Z" fill="white"/>
    <path d="M300.673 292.888L294.734 292.916L294.183 286.964L300.136 286.935L300.673 292.888Z" fill="#407BFF"/>
    <path d="M301.408 300.906L295.469 300.934L294.918 294.981L300.871 294.967L301.408 300.906Z" fill="#407BFF"/>
    <path d="M309.115 292.86L303.176 292.874L302.624 286.935L308.563 286.907L309.115 292.86Z" fill="#407BFF"/>
    <path opacity="0.2" d="M309.115 292.86L303.176 292.874L302.624 286.935L308.563 286.907L309.115 292.86Z" fill="white"/>
    <path d="M317.556 292.817L311.603 292.846L311.066 286.893L317.005 286.865L317.556 292.817Z" fill="#407BFF"/>
    <path opacity="0.2" d="M317.556 292.817L311.603 292.846L311.066 286.893L317.005 286.865L317.556 292.817Z" fill="white"/>
    <path d="M325.984 292.789L320.045 292.803L319.493 286.865L325.446 286.836L325.984 292.789Z" fill="#407BFF"/>
    <path opacity="0.2" d="M325.984 292.789L320.045 292.803L319.493 286.865L325.446 286.836L325.984 292.789Z" fill="white"/>
    <path d="M334.425 292.747L328.472 292.775L327.935 286.822L333.874 286.808L334.425 292.747Z" fill="#407BFF"/>
    <path opacity="0.2" d="M334.425 292.747L328.472 292.775L327.935 286.822L333.874 286.808L334.425 292.747Z" fill="white"/>
    <path d="M309.85 300.877L303.897 300.906L303.36 294.953L309.313 294.924L309.85 300.877Z" fill="#407BFF"/>
    <path opacity="0.2" d="M309.85 300.877L303.897 300.906L303.36 294.953L309.313 294.924L309.85 300.877Z" fill="white"/>
    <path d="M318.277 300.835L312.339 300.863L311.787 294.91L317.74 294.896L318.277 300.835Z" fill="#407BFF"/>
    <path opacity="0.2" d="M318.277 300.835L312.339 300.863L311.787 294.91L317.74 294.896L318.277 300.835Z" fill="white"/>
    <path d="M326.719 300.807L320.78 300.835L320.229 294.882L326.181 294.854L326.719 300.807Z" fill="#407BFF"/>
    <path opacity="0.2" d="M326.719 300.807L320.78 300.835L320.229 294.882L326.181 294.854L326.719 300.807Z" fill="white"/>
    <path d="M316.821 284.8L310.868 284.828L310.331 278.875L316.269 278.847L316.821 284.8Z" fill="#407BFF"/>
    <path opacity="0.2" d="M316.821 284.8L310.868 284.828L310.331 278.875L316.269 278.847L316.821 284.8Z" fill="white"/>
    <path d="M325.248 284.758L319.31 284.786L318.758 278.847L324.711 278.819L325.248 284.758Z" fill="#407BFF"/>
    <path opacity="0.2" d="M325.248 284.758L319.31 284.786L318.758 278.847L324.711 278.819L325.248 284.758Z" fill="white"/>
    <path d="M333.69 284.73L327.737 284.758L327.2 278.805L333.139 278.777L333.69 284.73Z" fill="#407BFF"/>
    <path opacity="0.2" d="M333.69 284.73L327.737 284.758L327.2 278.805L333.139 278.777L333.69 284.73Z" fill="white"/>
    <path d="M335.16 300.764L329.207 300.793L328.67 294.854L334.609 294.825L335.16 300.764Z" fill="white"/>
    <path d="M231.019 317.153V325.778H180.342L174.869 505.681H170.217V317.153H231.019Z" fill="#263238"/>
    <path opacity="0.7" d="M231.019 317.153V325.778H180.342L174.869 505.681H170.217V317.153H231.019Z" fill="white"/>
    <path d="M170.217 505.681H165.82L164.406 317.153H170.217V505.681Z" fill="#263238"/>
    <g opacity="0.3">
        <path opacity="0.3" d="M170.217 505.681H165.82L164.406 317.153H170.217V505.681Z" fill="white"/>
    </g>
    <path d="M245.442 317.153V505.681H240.833L236.732 325.778H231.302V317.153H245.442Z" fill="#263238"/>
    <path d="M241.356 505.681H236.958L231.302 317.153H237.114L241.356 505.681Z" fill="#263238"/>
    <g opacity="0.3">
        <path opacity="0.3" d="M241.356 505.681H236.958L231.302 317.153H237.114L241.356 505.681Z" fill="white"/>
    </g>
    <path opacity="0.7" d="M245.442 317.153V505.681H240.833L236.732 325.778H231.302V317.153H245.442Z" fill="white"/>
    <path d="M521.978 505.681H517.595L511.939 317.153H517.736L521.978 505.681Z" fill="#263238"/>
    <path opacity="0.3" d="M511.939 317.153H517.736L521.978 505.681H517.595" fill="white"/>
    <path d="M446.64 317.153H170.246V331.448H446.64V317.153Z" fill="#263238"/>
    <path opacity="0.5" d="M446.64 317.153H170.246V331.448H446.64V317.153Z" fill="white"/>
    <path d="M451.137 317.153V505.681H455.775L461.247 325.764H517.369L521.469 505.681H526.079V317.153H451.137Z" fill="#263238"/>
    <path opacity="0.7" d="M451.137 317.153V505.681H455.775L461.247 325.764H517.369L521.469 505.681H526.079V317.153H451.137Z" fill="white"/>
    <path d="M451.137 505.681H446.739L445.325 317.153H451.137V505.681Z" fill="#263238"/>
    <path opacity="0.3" d="M451.137 505.681H446.739L445.325 317.153H451.137V505.681Z" fill="white"/>
    <path d="M447.503 306.307H156.714V317.153H447.503V306.307Z" fill="#263238"/>
    <path opacity="0.6" d="M447.503 306.307H156.714V317.153H447.503V306.307Z" fill="white"/>
    <path d="M533.771 306.307H440.758V317.153H533.771V306.307Z" fill="#263238"/>
    <path opacity="0.7" d="M533.771 306.307H440.758V317.153H533.771V306.307Z" fill="white"/>
    <path d="M275.942 283.287H106.177C129.947 197.316 82.408 111.387 106.177 25.4302H275.942C252.173 111.387 299.768 197.316 275.942 283.287Z" fill="#407BFF"/>
    <path opacity="0.7" d="M275.942 283.287H106.177C129.947 197.316 82.408 111.387 106.177 25.4302H275.942C252.173 111.387 299.768 197.316 275.942 283.287Z" fill="white"/>
    <path d="M256.203 79.4168H179.493C179.295 79.4168 179.104 79.3379 178.963 79.1973C178.823 79.0568 178.744 78.8662 178.744 78.6674C178.744 78.4686 178.823 78.278 178.963 78.1375C179.104 77.9969 179.295 77.918 179.493 77.918H256.203C256.402 77.918 256.592 77.9969 256.733 78.1375C256.873 78.278 256.952 78.4686 256.952 78.6674C256.952 78.8662 256.873 79.0568 256.733 79.1973C256.592 79.3379 256.402 79.4168 256.203 79.4168Z" fill="#263238"/>
    <path d="M256.57 94.6595H179.861C179.66 94.6562 179.469 94.577 179.324 94.4379C179.18 94.2989 179.094 94.1102 179.083 93.9101C179.077 93.8137 179.091 93.7172 179.124 93.6265C179.157 93.5357 179.208 93.4527 179.275 93.3825C179.341 93.3123 179.421 93.2564 179.509 93.2182C179.598 93.1801 179.694 93.1605 179.79 93.1606H256.5C256.701 93.1637 256.895 93.2424 257.041 93.3812C257.188 93.5199 257.277 93.7087 257.291 93.9101C257.295 94.0071 257.279 94.104 257.245 94.1947C257.21 94.2855 257.158 94.3684 257.09 94.4384C257.023 94.5084 256.942 94.564 256.853 94.602C256.764 94.64 256.667 94.6596 256.57 94.6595Z" fill="#263238"/>
    <path d="M257.56 109.973H113.332C113.128 109.968 112.933 109.889 112.782 109.751C112.632 109.614 112.536 109.426 112.512 109.224C112.502 109.129 112.512 109.033 112.542 108.942C112.571 108.852 112.62 108.768 112.684 108.697C112.748 108.627 112.826 108.57 112.914 108.532C113.001 108.493 113.095 108.474 113.191 108.474H257.419C257.622 108.477 257.817 108.555 257.966 108.694C258.115 108.832 258.207 109.021 258.225 109.224C258.235 109.318 258.225 109.412 258.196 109.502C258.167 109.592 258.12 109.674 258.058 109.745C257.995 109.815 257.918 109.872 257.833 109.911C257.747 109.951 257.654 109.972 257.56 109.973Z" fill="#263238"/>
    <path d="M269.551 240.683H125.281C125.183 240.685 125.086 240.667 124.995 240.63C124.905 240.593 124.823 240.537 124.756 240.467C124.688 240.396 124.635 240.313 124.602 240.221C124.568 240.129 124.554 240.031 124.559 239.934C124.574 239.734 124.663 239.547 124.81 239.41C124.957 239.274 125.151 239.198 125.351 239.199H269.579C269.675 239.197 269.77 239.214 269.859 239.251C269.948 239.287 270.028 239.342 270.094 239.411C270.161 239.48 270.212 239.562 270.245 239.652C270.278 239.742 270.292 239.838 270.286 239.934C270.279 240.128 270.2 240.313 270.064 240.451C269.928 240.59 269.745 240.673 269.551 240.683Z" fill="#263238"/>
    <path d="M171.094 266.885H122.396C122.303 266.887 122.21 266.868 122.125 266.829C122.041 266.791 121.966 266.733 121.907 266.66C121.848 266.588 121.807 266.503 121.786 266.412C121.766 266.321 121.766 266.226 121.788 266.135C121.829 265.93 121.938 265.745 122.097 265.609C122.256 265.473 122.456 265.395 122.665 265.386H171.32C171.414 265.383 171.506 265.402 171.591 265.441C171.676 265.48 171.75 265.538 171.809 265.611C171.868 265.683 171.909 265.768 171.93 265.859C171.951 265.95 171.95 266.045 171.928 266.135C171.889 266.334 171.787 266.514 171.636 266.649C171.486 266.785 171.296 266.867 171.094 266.885Z" fill="#263238"/>
    <path d="M267.161 266.885H218.506C218.412 266.887 218.32 266.868 218.235 266.829C218.15 266.791 218.075 266.733 218.017 266.66C217.958 266.588 217.917 266.503 217.896 266.412C217.875 266.321 217.876 266.226 217.898 266.135C217.936 265.929 218.044 265.742 218.204 265.606C218.363 265.47 218.565 265.392 218.774 265.386H267.43C267.523 265.383 267.616 265.402 267.701 265.441C267.785 265.48 267.86 265.538 267.919 265.611C267.978 265.683 268.019 265.768 268.04 265.859C268.06 265.95 268.06 266.045 268.038 266.135C267.997 266.34 267.888 266.526 267.729 266.662C267.57 266.798 267.37 266.876 267.161 266.885Z" fill="#263238"/>
    <path d="M151.595 60.3276C151.595 66.7331 146.773 70.7205 139.095 70.7205H133.298V78.6531H126.638V49.8782H139.095C146.773 49.8782 151.595 53.8657 151.595 60.3276ZM144.85 60.3276C144.85 57.1603 142.786 55.3079 138.728 55.3079H133.298V65.2908H138.728C142.814 65.2908 144.85 63.4526 144.85 60.3276Z" fill="#407BFF"/>
    <path d="M156.162 95.0979L149.22 85.1151L142.39 95.0979H134.74L145.388 80.463L135.278 66.323H142.814L149.432 75.6554L155.936 66.323H163.133L153.094 80.2226L163.826 95.0979H156.162Z" fill="#407BFF"/>
    <path d="M122.424 119.546C122.424 121.13 121.236 122.119 119.327 122.119H117.913V124.085H116.245V117.015H119.327C121.236 116.888 122.424 117.877 122.424 119.546ZM120.756 119.546C120.756 118.768 120.247 118.302 119.243 118.302H117.829V120.776H119.243C120.19 120.705 120.756 120.253 120.756 119.546Z" fill="#263238"/>
    <path d="M126.878 118.457V119.871H126.511C126.315 119.871 126.121 119.911 125.942 119.989C125.763 120.067 125.601 120.181 125.468 120.325C125.336 120.468 125.234 120.638 125.17 120.822C125.106 121.007 125.081 121.203 125.097 121.398V123.986H123.47V118.514H124.983V119.235C125.214 118.963 125.506 118.75 125.836 118.615C126.166 118.479 126.523 118.425 126.878 118.457Z" fill="#263238"/>
    <path d="M133.086 121.724H128.957C129.032 122.068 129.233 122.373 129.521 122.577C129.808 122.781 130.162 122.87 130.512 122.827C130.772 122.842 131.033 122.801 131.277 122.709C131.52 122.616 131.742 122.473 131.926 122.289L132.775 123.208C132.347 123.622 131.812 123.907 131.23 124.032C130.649 124.156 130.044 124.115 129.484 123.914C128.925 123.712 128.433 123.357 128.065 122.89C127.697 122.423 127.467 121.862 127.401 121.271C127.401 120.893 127.477 120.518 127.624 120.169C127.772 119.82 127.988 119.505 128.259 119.241C128.531 118.977 128.853 118.771 129.206 118.634C129.559 118.497 129.936 118.432 130.314 118.443C130.69 118.427 131.065 118.489 131.415 118.626C131.765 118.762 132.084 118.97 132.35 119.236C132.615 119.502 132.823 119.82 132.96 120.17C133.096 120.521 133.158 120.895 133.142 121.271C133.128 121.413 133.1 121.596 133.086 121.724ZM128.928 120.79H131.629C131.54 120.502 131.36 120.25 131.117 120.071C130.874 119.892 130.581 119.796 130.279 119.796C129.977 119.796 129.683 119.892 129.44 120.071C129.197 120.25 129.018 120.502 128.928 120.79Z" fill="#263238"/>
    <path d="M133.637 123.505L134.175 122.36C134.744 122.711 135.4 122.897 136.069 122.897C136.805 122.897 137.087 122.699 137.087 122.388C137.087 121.497 133.779 122.388 133.779 120.225C133.779 119.193 134.712 118.457 136.31 118.457C137.041 118.442 137.764 118.607 138.417 118.938L137.879 120.069C137.402 119.794 136.86 119.653 136.31 119.659C135.603 119.659 135.292 119.885 135.292 120.168C135.292 121.101 138.6 120.168 138.6 122.36C138.6 123.364 137.653 124.099 136.013 124.099C135.182 124.115 134.363 123.91 133.637 123.505Z" fill="#263238"/>
    <path d="M139.166 121.271C139.165 120.881 139.244 120.495 139.4 120.137C139.555 119.78 139.782 119.458 140.068 119.192C140.353 118.927 140.691 118.723 141.059 118.594C141.427 118.465 141.817 118.414 142.206 118.443C142.711 118.402 143.217 118.515 143.656 118.768C144.095 119.02 144.448 119.4 144.666 119.857L143.436 120.507C143.317 120.284 143.14 120.096 142.924 119.964C142.707 119.833 142.459 119.761 142.206 119.758C141.805 119.758 141.42 119.917 141.136 120.201C140.853 120.485 140.693 120.87 140.693 121.271C140.693 121.672 140.853 122.057 141.136 122.341C141.42 122.625 141.805 122.784 142.206 122.784C142.461 122.791 142.713 122.723 142.932 122.59C143.15 122.458 143.325 122.265 143.436 122.035L144.666 122.713C144.443 123.167 144.09 123.543 143.652 123.795C143.213 124.047 142.71 124.163 142.206 124.127C141.815 124.157 141.422 124.105 141.052 123.974C140.682 123.843 140.343 123.637 140.057 123.368C139.771 123.1 139.545 122.775 139.391 122.413C139.238 122.052 139.161 121.663 139.166 121.271Z" fill="#263238"/>
    <path d="M148.965 118.457V119.871H148.611C148.416 119.871 148.222 119.91 148.043 119.989C147.864 120.067 147.702 120.181 147.569 120.324C147.437 120.468 147.335 120.638 147.271 120.822C147.207 121.007 147.182 121.203 147.197 121.398V123.986H145.642V118.514H147.056V119.235C147.287 118.96 147.581 118.745 147.914 118.609C148.247 118.474 148.608 118.422 148.965 118.457Z" fill="#263238"/>
    <path d="M149.714 116.888C149.718 116.764 149.746 116.642 149.799 116.529C149.851 116.417 149.926 116.317 150.019 116.234C150.112 116.152 150.22 116.09 150.338 116.052C150.456 116.013 150.581 115.999 150.704 116.011C150.826 115.997 150.949 116.009 151.066 116.045C151.183 116.081 151.291 116.14 151.384 116.22C151.477 116.299 151.552 116.397 151.605 116.507C151.659 116.617 151.689 116.737 151.694 116.859C151.694 117.122 151.59 117.374 151.404 117.559C151.218 117.745 150.967 117.849 150.704 117.849C150.442 117.849 150.19 117.745 150.004 117.559C149.819 117.374 149.714 117.122 149.714 116.859V116.888ZM149.912 118.542H151.496V124.014H149.884L149.912 118.542Z" fill="#263238"/>
    <path d="M158.934 121.271C158.955 121.64 158.9 122.009 158.772 122.355C158.644 122.701 158.445 123.017 158.189 123.283C157.932 123.549 157.624 123.759 157.282 123.899C156.941 124.039 156.574 124.108 156.205 124.099C155.898 124.111 155.591 124.059 155.306 123.944C155.021 123.829 154.763 123.656 154.55 123.435V125.98H152.967V118.542H154.48V119.164C154.696 118.925 154.964 118.738 155.262 118.615C155.56 118.493 155.883 118.439 156.205 118.457C156.573 118.449 156.938 118.517 157.279 118.656C157.619 118.796 157.927 119.004 158.183 119.269C158.44 119.533 158.638 119.847 158.768 120.192C158.897 120.536 158.953 120.904 158.934 121.271ZM157.322 121.271C157.302 120.997 157.203 120.734 157.037 120.514C156.87 120.295 156.643 120.129 156.384 120.037C156.124 119.945 155.844 119.931 155.576 119.996C155.309 120.062 155.066 120.204 154.878 120.405C154.69 120.606 154.565 120.857 154.518 121.129C154.471 121.4 154.504 121.679 154.613 121.932C154.723 122.184 154.903 122.4 155.133 122.551C155.363 122.702 155.632 122.783 155.908 122.784C156.102 122.785 156.294 122.745 156.473 122.668C156.651 122.591 156.812 122.478 156.944 122.336C157.077 122.194 157.179 122.026 157.244 121.843C157.309 121.66 157.335 121.465 157.322 121.271Z" fill="#263238"/>
    <path d="M163.515 123.788C163.127 124.035 162.674 124.159 162.214 124.141C161.944 124.179 161.669 124.155 161.409 124.071C161.15 123.987 160.913 123.845 160.717 123.655C160.521 123.466 160.37 123.234 160.277 122.978C160.183 122.721 160.15 122.447 160.178 122.176V119.928H159.33V118.698H160.178V117.368H161.762V118.698H163.176V119.928H161.762V122.148C161.749 122.242 161.757 122.338 161.786 122.428C161.815 122.518 161.864 122.601 161.929 122.67C161.994 122.74 162.074 122.793 162.162 122.828C162.251 122.862 162.346 122.876 162.44 122.869C162.668 122.873 162.891 122.804 163.077 122.671L163.515 123.788Z" fill="#263238"/>
    <path d="M164.208 116.888C164.211 116.764 164.24 116.642 164.292 116.529C164.345 116.417 164.42 116.317 164.512 116.234C164.605 116.152 164.714 116.09 164.832 116.052C164.95 116.013 165.074 115.999 165.198 116.011C165.318 115.999 165.44 116.012 165.555 116.049C165.67 116.086 165.776 116.146 165.868 116.225C165.959 116.305 166.033 116.402 166.086 116.511C166.138 116.62 166.168 116.739 166.173 116.859C166.144 117.1 166.028 117.321 165.847 117.482C165.666 117.642 165.433 117.731 165.19 117.731C164.948 117.731 164.715 117.642 164.534 117.482C164.353 117.321 164.237 117.1 164.208 116.859V116.888ZM164.392 118.542H165.989V124.014H164.392V118.542Z" fill="#263238"/>
    <path d="M167.05 121.271C167.013 120.669 167.158 120.07 167.466 119.551C167.774 119.032 168.23 118.617 168.776 118.361C169.322 118.105 169.933 118.018 170.529 118.113C171.124 118.207 171.678 118.479 172.118 118.892C172.558 119.305 172.863 119.84 172.995 120.429C173.127 121.017 173.079 121.632 172.858 122.193C172.636 122.754 172.251 123.236 171.753 123.576C171.254 123.916 170.665 124.098 170.062 124.099C169.675 124.124 169.288 124.07 168.923 123.939C168.558 123.808 168.225 123.604 167.942 123.339C167.66 123.074 167.435 122.753 167.281 122.398C167.128 122.042 167.049 121.658 167.05 121.271ZM171.448 121.271C171.428 120.996 171.329 120.733 171.163 120.514C170.996 120.295 170.769 120.129 170.51 120.037C170.25 119.945 169.969 119.931 169.702 119.996C169.435 120.062 169.192 120.203 169.004 120.405C168.816 120.606 168.691 120.857 168.644 121.129C168.597 121.4 168.63 121.679 168.739 121.932C168.849 122.184 169.029 122.399 169.259 122.551C169.489 122.702 169.758 122.783 170.034 122.784C170.228 122.785 170.42 122.745 170.599 122.668C170.777 122.591 170.937 122.478 171.07 122.336C171.203 122.194 171.305 122.026 171.37 121.843C171.435 121.659 171.461 121.465 171.448 121.271Z" fill="#263238"/>
    <path d="M179.705 120.875V124.014H178.164V121.186C178.164 120.31 177.754 119.9 177.047 119.9C176.34 119.9 175.746 120.366 175.746 121.314V124.028H174.148V118.556H175.675V119.193C175.909 118.952 176.192 118.763 176.503 118.639C176.815 118.515 177.15 118.458 177.485 118.471C177.797 118.457 178.108 118.51 178.396 118.628C178.685 118.746 178.944 118.926 179.156 119.156C179.368 119.385 179.526 119.657 179.621 119.954C179.716 120.252 179.745 120.566 179.705 120.875Z" fill="#263238"/>
    <path d="M180.751 119.447C180.745 119.317 180.767 119.188 180.813 119.067C180.86 118.946 180.932 118.836 181.024 118.744C181.116 118.652 181.226 118.58 181.347 118.533C181.468 118.487 181.597 118.465 181.727 118.471C181.858 118.466 181.988 118.487 182.109 118.533C182.231 118.58 182.342 118.652 182.435 118.743C182.528 118.835 182.601 118.945 182.65 119.066C182.698 119.187 182.721 119.317 182.717 119.447C182.721 119.578 182.698 119.709 182.65 119.83C182.601 119.952 182.528 120.063 182.436 120.156C182.343 120.248 182.232 120.321 182.111 120.37C181.989 120.418 181.858 120.441 181.727 120.437C181.597 120.439 181.468 120.415 181.348 120.365C181.228 120.316 181.119 120.243 181.028 120.151C180.937 120.058 180.865 119.948 180.818 119.827C180.77 119.706 180.748 119.577 180.751 119.447ZM180.751 123.095C180.745 122.965 180.767 122.836 180.813 122.715C180.86 122.594 180.932 122.484 181.024 122.392C181.116 122.3 181.226 122.228 181.347 122.182C181.468 122.135 181.597 122.114 181.727 122.12C181.858 122.114 181.988 122.135 182.109 122.182C182.231 122.228 182.342 122.3 182.435 122.391C182.528 122.483 182.601 122.593 182.65 122.714C182.698 122.835 182.721 122.965 182.717 123.095C182.721 123.227 182.698 123.358 182.65 123.481C182.602 123.603 182.529 123.715 182.436 123.809C182.344 123.902 182.233 123.977 182.112 124.026C181.99 124.076 181.859 124.101 181.727 124.099C181.596 124.101 181.466 124.076 181.345 124.026C181.224 123.976 181.114 123.902 181.023 123.808C180.931 123.714 180.86 123.602 180.813 123.48C180.767 123.357 180.746 123.226 180.751 123.095Z" fill="#263238"/>
    <path d="M311.776 118.079L286.634 110.074C282.087 108.627 277.228 111.139 275.781 115.686L248.331 201.903C246.884 206.45 249.396 211.309 253.943 212.757L279.085 220.761C283.631 222.209 288.49 219.696 289.938 215.15L317.387 128.932C318.835 124.385 316.322 119.526 311.776 118.079Z" fill="black"/>
    <path opacity="0.8" d="M317.783 126.616C317.767 127.418 317.634 128.214 317.387 128.977L289.941 215.231C289.847 215.524 289.739 215.812 289.616 216.094C288.759 218.046 287.21 219.611 285.267 220.489C283.325 221.366 281.126 221.493 279.096 220.845L253.94 212.842C251.796 212.154 250.005 210.656 248.948 208.668C247.892 206.679 247.654 204.356 248.284 202.194L264.121 152.464L275.73 115.686C276.07 114.602 276.62 113.595 277.349 112.724C278.078 111.852 278.972 111.133 279.98 110.608C280.987 110.083 282.088 109.761 283.22 109.662C284.352 109.563 285.492 109.688 286.576 110.03L311.787 118.132C312.338 118.308 312.868 118.54 313.371 118.825C314.751 119.593 315.893 120.726 316.671 122.101C317.449 123.475 317.834 125.037 317.783 126.616Z" fill="white"/>
    <g opacity="0.6">
        <path opacity="0.5" d="M256.952 174.847L268.363 139.031L300.673 114.54L313.399 118.782C314.782 119.551 315.925 120.687 316.703 122.064C317.482 123.441 317.865 125.007 317.811 126.588L256.952 174.847Z" fill="white"/>
    </g>
    <path opacity="0.5" d="M272.902 124.636L275.73 115.686C276.07 114.601 276.62 113.595 277.349 112.724C278.078 111.852 278.972 111.133 279.98 110.608C280.987 110.083 282.088 109.761 283.22 109.662C284.352 109.563 285.492 109.688 286.575 110.03L290.351 111.232L272.902 124.636Z" fill="white"/>
    <path d="M290.252 124.283C290.053 124.906 289.674 125.457 289.163 125.865C288.651 126.273 288.03 126.52 287.378 126.575C286.726 126.631 286.072 126.491 285.5 126.175C284.927 125.858 284.461 125.379 284.16 124.798C283.86 124.217 283.738 123.559 283.811 122.909C283.884 122.259 284.148 121.645 284.57 121.145C284.992 120.645 285.553 120.281 286.182 120.099C286.811 119.918 287.479 119.927 288.103 120.126C288.518 120.256 288.903 120.467 289.236 120.747C289.569 121.027 289.844 121.37 290.044 121.756C290.244 122.143 290.365 122.565 290.401 122.999C290.436 123.432 290.386 123.869 290.252 124.283Z" fill="#407BFF"/>
    <path d="M283.946 144.051C283.747 144.671 283.369 145.219 282.859 145.624C282.349 146.03 281.73 146.275 281.081 146.329C280.432 146.383 279.781 146.243 279.211 145.928C278.641 145.612 278.178 145.134 277.879 144.555C277.581 143.976 277.461 143.321 277.534 142.674C277.608 142.027 277.872 141.416 278.292 140.918C278.713 140.421 279.272 140.059 279.898 139.879C280.524 139.699 281.19 139.709 281.81 139.907C282.223 140.039 282.605 140.251 282.935 140.53C283.266 140.81 283.538 141.152 283.736 141.537C283.935 141.921 284.055 142.341 284.091 142.773C284.127 143.204 284.077 143.638 283.946 144.051Z" fill="#407BFF"/>
    <path d="M277.653 163.832C277.457 164.457 277.08 165.01 276.569 165.42C276.058 165.831 275.437 166.08 274.784 166.137C274.132 166.194 273.477 166.056 272.903 165.741C272.329 165.425 271.861 164.946 271.559 164.365C271.258 163.783 271.136 163.125 271.208 162.474C271.281 161.823 271.545 161.208 271.968 160.707C272.39 160.207 272.952 159.843 273.581 159.661C274.211 159.48 274.88 159.49 275.504 159.689C275.918 159.82 276.301 160.03 276.633 160.309C276.965 160.588 277.239 160.93 277.439 161.315C277.638 161.7 277.76 162.12 277.797 162.552C277.834 162.984 277.785 163.419 277.653 163.832Z" fill="#407BFF"/>
    <path d="M271.361 183.614C271.162 184.238 270.783 184.788 270.272 185.197C269.76 185.605 269.139 185.852 268.487 185.907C267.835 185.962 267.181 185.823 266.608 185.506C266.036 185.19 265.57 184.711 265.269 184.13C264.968 183.548 264.847 182.891 264.92 182.241C264.993 181.59 265.257 180.976 265.679 180.476C266.101 179.976 266.662 179.612 267.291 179.431C267.92 179.25 268.588 179.259 269.212 179.457C269.627 179.587 270.012 179.798 270.345 180.078C270.678 180.358 270.953 180.701 271.153 181.088C271.352 181.474 271.474 181.897 271.509 182.33C271.545 182.764 271.495 183.2 271.361 183.614Z" fill="#407BFF"/>
    <path d="M265.069 203.382C264.872 204.007 264.495 204.56 263.984 204.97C263.473 205.38 262.852 205.63 262.2 205.687C261.547 205.744 260.892 205.606 260.318 205.29C259.744 204.975 259.276 204.496 258.975 203.914C258.673 203.333 258.551 202.675 258.623 202.024C258.696 201.372 258.96 200.758 259.383 200.257C259.805 199.756 260.367 199.392 260.997 199.211C261.626 199.03 262.295 199.039 262.919 199.239C263.75 199.508 264.442 200.094 264.844 200.87C265.246 201.645 265.327 202.547 265.069 203.382Z" fill="#407BFF"/>
    <path d="M306.145 129.345C305.84 130.13 305.247 130.769 304.487 131.132C303.727 131.495 302.858 131.554 302.055 131.298C301.253 131.042 300.579 130.49 300.169 129.754C299.76 129.018 299.647 128.153 299.853 127.337C299.963 126.899 300.162 126.488 300.438 126.13C300.713 125.772 301.059 125.474 301.453 125.254C301.848 125.035 302.284 124.898 302.733 124.854C303.183 124.809 303.637 124.857 304.067 124.994C304.497 125.131 304.895 125.355 305.236 125.652C305.576 125.949 305.852 126.312 306.047 126.72C306.242 127.128 306.351 127.571 306.368 128.022C306.385 128.474 306.309 128.924 306.145 129.345Z" fill="#407BFF"/>
    <path d="M299.853 149.113C299.655 149.733 299.278 150.281 298.769 150.687C298.26 151.093 297.642 151.339 296.994 151.395C296.345 151.45 295.694 151.312 295.124 150.998C294.554 150.683 294.089 150.207 293.79 149.629C293.49 149.051 293.368 148.397 293.439 147.75C293.511 147.103 293.773 146.491 294.191 145.993C294.61 145.494 295.167 145.131 295.792 144.949C296.418 144.767 297.083 144.774 297.704 144.97C298.537 145.236 299.231 145.821 299.633 146.598C300.036 147.374 300.115 148.278 299.853 149.113Z" fill="#407BFF"/>
    <path d="M293.561 168.894C293.364 169.519 292.987 170.072 292.476 170.482C291.966 170.893 291.345 171.142 290.692 171.199C290.039 171.256 289.384 171.118 288.81 170.803C288.236 170.487 287.769 170.008 287.467 169.427C287.165 168.845 287.043 168.187 287.116 167.536C287.188 166.885 287.453 166.27 287.875 165.769C288.297 165.269 288.859 164.905 289.489 164.723C290.118 164.542 290.787 164.552 291.411 164.751C292.242 165.021 292.934 165.607 293.336 166.382C293.738 167.157 293.819 168.06 293.561 168.894Z" fill="#407BFF"/>
    <path d="M287.254 188.676C286.949 189.461 286.356 190.1 285.596 190.463C284.836 190.826 283.967 190.886 283.164 190.63C282.362 190.374 281.687 189.822 281.278 189.085C280.869 188.349 280.756 187.485 280.962 186.668C281.072 186.23 281.271 185.82 281.547 185.461C281.822 185.103 282.168 184.805 282.562 184.586C282.957 184.366 283.393 184.23 283.842 184.185C284.292 184.14 284.746 184.188 285.176 184.326C285.606 184.463 286.004 184.687 286.344 184.984C286.685 185.281 286.961 185.644 287.156 186.052C287.35 186.459 287.46 186.902 287.477 187.354C287.493 187.805 287.418 188.255 287.254 188.676Z" fill="#407BFF"/>
    <path d="M280.962 208.444C280.764 209.065 280.387 209.612 279.878 210.019C279.369 210.425 278.751 210.671 278.103 210.726C277.454 210.782 276.803 210.643 276.233 210.329C275.663 210.015 275.198 209.539 274.898 208.961C274.599 208.383 274.477 207.729 274.548 207.082C274.62 206.434 274.881 205.823 275.3 205.324C275.719 204.826 276.276 204.463 276.901 204.28C277.527 204.098 278.192 204.105 278.813 204.301C279.646 204.567 280.339 205.153 280.742 205.929C281.145 206.705 281.224 207.61 280.962 208.444Z" fill="#407BFF"/>
    <g opacity="0.4">
        <path opacity="0.4" d="M290.252 124.283C290.053 124.906 289.674 125.457 289.163 125.865C288.651 126.273 288.03 126.52 287.378 126.575C286.726 126.631 286.072 126.491 285.5 126.175C284.927 125.858 284.461 125.379 284.16 124.798C283.86 124.217 283.738 123.559 283.811 122.909C283.884 122.259 284.148 121.645 284.57 121.145C284.992 120.645 285.553 120.281 286.182 120.099C286.811 119.918 287.479 119.927 288.103 120.126C288.518 120.256 288.903 120.467 289.236 120.747C289.569 121.027 289.844 121.37 290.044 121.756C290.244 122.143 290.365 122.565 290.401 122.999C290.436 123.432 290.386 123.869 290.252 124.283Z" fill="white"/>
        <path opacity="0.4" d="M283.946 144.05C283.747 144.671 283.369 145.219 282.859 145.624C282.349 146.03 281.73 146.275 281.081 146.329C280.432 146.383 279.781 146.243 279.211 145.928C278.641 145.612 278.178 145.134 277.879 144.555C277.581 143.976 277.461 143.321 277.534 142.674C277.608 142.027 277.872 141.416 278.292 140.918C278.713 140.421 279.272 140.059 279.898 139.879C280.524 139.699 281.19 139.709 281.81 139.907C282.223 140.039 282.605 140.251 282.935 140.53C283.266 140.81 283.538 141.152 283.736 141.537C283.935 141.921 284.055 142.341 284.091 142.773C284.127 143.204 284.077 143.638 283.946 144.05Z" fill="white"/>
        <path opacity="0.4" d="M277.653 163.832C277.457 164.457 277.079 165.01 276.569 165.42C276.058 165.831 275.437 166.08 274.784 166.137C274.132 166.194 273.477 166.056 272.903 165.741C272.328 165.425 271.861 164.946 271.559 164.365C271.258 163.783 271.135 163.125 271.208 162.474C271.281 161.823 271.545 161.208 271.967 160.707C272.39 160.207 272.951 159.843 273.581 159.661C274.211 159.48 274.88 159.49 275.504 159.689C275.917 159.82 276.301 160.03 276.633 160.309C276.965 160.588 277.239 160.93 277.439 161.315C277.638 161.7 277.76 162.12 277.797 162.552C277.834 162.984 277.785 163.419 277.653 163.832Z" fill="white"/>
        <path opacity="0.4" d="M271.361 183.614C271.162 184.238 270.783 184.788 270.272 185.196C269.76 185.604 269.139 185.852 268.487 185.907C267.835 185.962 267.181 185.823 266.608 185.506C266.036 185.19 265.57 184.711 265.269 184.129C264.968 183.548 264.847 182.891 264.92 182.24C264.993 181.59 265.257 180.976 265.679 180.476C266.101 179.976 266.662 179.612 267.291 179.431C267.92 179.249 268.588 179.258 269.212 179.457C269.627 179.587 270.012 179.798 270.345 180.078C270.678 180.358 270.953 180.701 271.153 181.088C271.352 181.474 271.474 181.896 271.509 182.33C271.545 182.764 271.495 183.2 271.361 183.614Z" fill="white"/>
        <path opacity="0.4" d="M265.069 203.382C264.872 204.007 264.495 204.56 263.984 204.97C263.473 205.38 262.852 205.63 262.2 205.687C261.547 205.744 260.892 205.606 260.318 205.29C259.744 204.975 259.276 204.496 258.975 203.914C258.673 203.333 258.551 202.675 258.623 202.024C258.696 201.372 258.96 200.758 259.383 200.257C259.805 199.756 260.367 199.392 260.997 199.211C261.626 199.03 262.295 199.039 262.919 199.239C263.75 199.508 264.442 200.094 264.844 200.87C265.246 201.645 265.327 202.547 265.069 203.382Z" fill="white"/>
    </g>
    <g opacity="0.4">
        <path opacity="0.4" d="M306.145 129.345C305.84 130.13 305.247 130.769 304.487 131.132C303.727 131.495 302.858 131.554 302.055 131.298C301.253 131.042 300.579 130.49 300.169 129.754C299.76 129.018 299.647 128.153 299.853 127.337C299.963 126.899 300.162 126.488 300.438 126.13C300.713 125.772 301.059 125.474 301.453 125.254C301.848 125.035 302.284 124.898 302.733 124.854C303.183 124.809 303.637 124.857 304.067 124.994C304.497 125.131 304.895 125.355 305.236 125.652C305.576 125.949 305.852 126.312 306.047 126.72C306.242 127.128 306.351 127.571 306.368 128.022C306.385 128.474 306.309 128.924 306.145 129.345Z" fill="white"/>
        <path opacity="0.4" d="M299.853 149.113C299.655 149.733 299.278 150.281 298.769 150.687C298.26 151.093 297.642 151.339 296.994 151.395C296.345 151.45 295.694 151.312 295.124 150.998C294.554 150.683 294.089 150.207 293.79 149.629C293.49 149.051 293.368 148.397 293.439 147.75C293.511 147.103 293.773 146.491 294.191 145.993C294.61 145.494 295.167 145.131 295.792 144.949C296.418 144.767 297.083 144.774 297.704 144.97C298.537 145.236 299.231 145.821 299.633 146.598C300.036 147.374 300.115 148.278 299.853 149.113Z" fill="white"/>
        <path opacity="0.4" d="M293.561 168.894C293.364 169.519 292.987 170.072 292.476 170.482C291.966 170.893 291.345 171.142 290.692 171.199C290.039 171.256 289.384 171.118 288.81 170.803C288.236 170.487 287.769 170.008 287.467 169.427C287.165 168.845 287.043 168.187 287.116 167.536C287.188 166.885 287.453 166.27 287.875 165.769C288.297 165.269 288.859 164.905 289.489 164.723C290.118 164.542 290.787 164.552 291.411 164.751C292.242 165.021 292.934 165.607 293.336 166.382C293.738 167.157 293.819 168.06 293.561 168.894Z" fill="white"/>
        <path opacity="0.4" d="M287.254 188.676C286.949 189.461 286.356 190.1 285.596 190.463C284.836 190.826 283.967 190.886 283.164 190.63C282.362 190.374 281.687 189.821 281.278 189.085C280.869 188.349 280.756 187.485 280.962 186.668C281.072 186.23 281.271 185.819 281.547 185.461C281.822 185.103 282.168 184.805 282.562 184.586C282.957 184.366 283.393 184.23 283.842 184.185C284.292 184.14 284.746 184.188 285.176 184.325C285.606 184.463 286.004 184.687 286.344 184.983C286.685 185.28 286.961 185.644 287.156 186.051C287.35 186.459 287.46 186.902 287.477 187.353C287.493 187.805 287.418 188.255 287.254 188.676Z" fill="white"/>
        <path opacity="0.4" d="M280.962 208.444C280.764 209.064 280.387 209.612 279.878 210.018C279.369 210.425 278.751 210.671 278.103 210.726C277.454 210.781 276.803 210.643 276.233 210.329C275.663 210.015 275.198 209.538 274.898 208.96C274.599 208.382 274.477 207.729 274.548 207.081C274.62 206.434 274.881 205.823 275.3 205.324C275.719 204.826 276.276 204.462 276.901 204.28C277.527 204.098 278.192 204.105 278.813 204.301C279.646 204.567 280.339 205.152 280.742 205.929C281.145 206.705 281.224 207.609 280.962 208.444Z" fill="white"/>
    </g>
    <path opacity="0.7" d="M264.192 217.112L220.754 226.076C218.755 226.486 216.676 226.086 214.972 224.965C213.267 223.844 212.077 222.093 211.662 220.095L199.162 159.491C198.348 155.586 198.827 151.522 200.526 147.913C202.224 144.303 205.051 141.345 208.579 139.483C210.114 138.669 211.756 138.079 213.458 137.73L235.898 133.106C238.266 132.614 240.707 132.594 243.083 133.048C245.458 133.501 247.721 134.418 249.741 135.748C251.761 137.077 253.499 138.792 254.856 140.794C256.212 142.796 257.16 145.046 257.645 147.416L270.159 208.02C270.366 209.009 270.375 210.029 270.187 211.021C269.999 212.014 269.617 212.96 269.063 213.804C268.508 214.649 267.793 215.376 266.957 215.943C266.121 216.511 265.181 216.908 264.192 217.112Z" fill="white"/>
    <path d="M258.212 150.195L199.718 162.266L208.999 207.245L267.494 195.174L258.212 150.195Z" fill="#407BFF"/>
    <path opacity="0.4" d="M258.212 150.195L199.718 162.266L208.999 207.245L267.494 195.174L258.212 150.195Z" fill="white"/>
    <path d="M206.547 124.659L238.398 118.087C238.912 117.98 239.443 117.977 239.959 118.075C240.475 118.174 240.967 118.374 241.406 118.663C241.845 118.951 242.223 119.324 242.518 119.759C242.813 120.194 243.019 120.682 243.125 121.197L244.369 127.221L204.624 135.423L203.37 129.343C203.271 128.827 203.274 128.297 203.38 127.782C203.487 127.267 203.693 126.778 203.988 126.343C204.283 125.908 204.661 125.536 205.1 125.247C205.539 124.958 206.031 124.758 206.547 124.659Z" fill="#407BFF"/>
    <path opacity="0.7" d="M242.742 132.979C240.472 132.598 238.152 132.641 235.898 133.106L213.514 137.73C211.813 138.079 210.17 138.669 208.636 139.483L207.674 134.803L241.723 127.733L242.742 132.979Z" fill="white"/>
    <path opacity="0.3" d="M208 142.82C207.981 142.59 207.889 142.371 207.738 142.197C207.587 142.022 207.384 141.899 207.159 141.847C206.934 141.796 206.698 141.817 206.486 141.908C206.273 141.998 206.095 142.155 205.978 142.354C204.398 144.887 203.674 147.861 203.913 150.838C204.677 155.928 215.536 211.427 217.205 219.926C217.349 220.625 217.728 221.254 218.279 221.707C218.646 222 219.076 222.204 219.534 222.304C219.992 222.405 220.468 222.399 220.924 222.287L222.578 221.877L208.438 149.325C208.438 149.325 208.183 145.846 208 142.82Z" fill="white"/>
</svg>
