<svg width="1325" height="450" viewBox="0 0 1325 450" fill="none" xmlns="http://www.w3.org/2000/svg">
    <g clip-path="url(#clip0_51_2488)">
        <path d="M108.766 264.391V244.249H88.9245C83.519 244.249 78.3349 242.101 74.5126 238.277C70.6904 234.452 68.5431 229.266 68.5431 223.858C68.5431 218.45 70.6904 213.263 74.5126 209.439C78.3349 205.615 83.519 203.466 88.9245 203.466H108.766V183.325C108.766 177.917 110.913 172.73 114.735 168.906C118.558 165.082 123.742 162.933 129.147 162.933C134.553 162.933 139.737 165.082 143.559 168.906C147.381 172.73 149.529 177.917 149.529 183.325V203.466H176.305C178.22 203.466 180.102 202.963 181.764 202.009C183.425 201.054 184.808 199.681 185.774 198.027C186.74 196.372 187.256 194.492 187.271 192.576C187.286 190.659 186.799 188.772 185.858 187.102C179.145 175.124 169.33 165.177 157.445 158.307C145.56 151.438 132.044 147.899 118.32 148.063C76.8587 148.532 43.0969 182.463 42.8014 223.949C42.6942 240.111 47.7081 255.892 57.1235 269.025C66.5388 282.158 79.8712 291.969 95.2068 297.049C110.542 302.129 127.092 302.217 142.481 297.3C157.87 292.383 171.306 282.715 180.86 269.682C183.363 266.277 186.89 263.763 190.924 262.509C194.959 261.255 199.288 261.327 203.279 262.713C206.193 263.72 208.831 265.394 210.983 267.6C213.136 269.807 214.745 272.486 215.68 275.424C216.616 278.362 216.853 281.478 216.373 284.524C215.893 287.57 214.709 290.462 212.915 292.969C200.929 309.72 184.748 323.02 165.998 331.532C147.248 340.045 126.588 343.47 106.096 341.465C50.2966 336.229 5.80407 291.74 0.540574 235.94C-6.06299 165.895 48.8139 107 117.443 107C175.128 107 223.09 148.614 233 203.466V208.274C232.999 217.814 229.21 226.964 222.467 233.711C215.724 240.457 206.579 244.248 197.043 244.249H149.529V264.391C149.529 269.799 147.381 274.985 143.559 278.809C139.737 282.634 134.553 284.782 129.147 284.782C123.742 284.782 118.558 282.634 114.735 278.809C110.913 274.985 108.766 269.799 108.766 264.391Z" fill="#0071FF"/>
    </g>
    <path d="M353.2 162.6C373.2 162.6 389.4 168.7 401.8 180.9C414.2 192.9 420.4 210.3 420.4 233.1V330H393.4V237C393.4 220.6 389.3 208.1 381.1 199.5C372.9 190.7 361.7 186.3 347.5 186.3C333.1 186.3 321.6 190.8 313 199.8C304.6 208.8 300.4 221.9 300.4 239.1V330H273.1V165.6H300.4V189C305.8 180.6 313.1 174.1 322.3 169.5C331.7 164.9 342 162.6 353.2 162.6ZM556.795 330L492.295 257.4V330H464.995V108H492.295V238.5L555.595 165.6H593.695L516.295 247.5L593.995 330H556.795ZM633.489 138.9C628.289 138.9 623.889 137.1 620.289 133.5C616.689 129.9 614.889 125.5 614.889 120.3C614.889 115.1 616.689 110.7 620.289 107.1C623.889 103.5 628.289 101.7 633.489 101.7C638.489 101.7 642.689 103.5 646.089 107.1C649.689 110.7 651.489 115.1 651.489 120.3C651.489 125.5 649.689 129.9 646.089 133.5C642.689 137.1 638.489 138.9 633.489 138.9ZM646.689 165.6V330H619.389V165.6H646.689ZM773.317 162.6C793.317 162.6 809.517 168.7 821.917 180.9C834.317 192.9 840.517 210.3 840.517 233.1V330H813.517V237C813.517 220.6 809.417 208.1 801.217 199.5C793.017 190.7 781.817 186.3 767.617 186.3C753.217 186.3 741.717 190.8 733.117 199.8C724.717 208.8 720.517 221.9 720.517 239.1V330H693.217V165.6H720.517V189C725.917 180.6 733.217 174.1 742.417 169.5C751.817 164.9 762.117 162.6 773.317 162.6ZM874.912 247.2C874.912 230.4 878.312 215.7 885.112 203.1C891.912 190.3 901.212 180.4 913.012 173.4C925.012 166.4 938.412 162.9 953.212 162.9C966.012 162.9 977.912 165.9 988.912 171.9C999.912 177.7 1008.31 185.4 1014.11 195V108H1041.71V330H1014.11V299.1C1008.71 308.9 1000.71 317 990.112 323.4C979.512 329.6 967.112 332.7 952.912 332.7C938.312 332.7 925.012 329.1 913.012 321.9C901.212 314.7 891.912 304.6 885.112 291.6C878.312 278.6 874.912 263.8 874.912 247.2ZM1014.11 247.5C1014.11 235.1 1011.61 224.3 1006.61 215.1C1001.61 205.9 994.812 198.9 986.212 194.1C977.812 189.1 968.512 186.6 958.312 186.6C948.112 186.6 938.812 189 930.412 193.8C922.012 198.6 915.312 205.6 910.312 214.8C905.312 224 902.812 234.8 902.812 247.2C902.812 259.8 905.312 270.8 910.312 280.2C915.312 289.4 922.012 296.5 930.412 301.5C938.812 306.3 948.112 308.7 958.312 308.7C968.512 308.7 977.812 306.3 986.212 301.5C994.812 296.5 1001.61 289.4 1006.61 280.2C1011.61 270.8 1014.11 259.9 1014.11 247.5ZM1115.15 108V330H1087.85V108H1115.15ZM1311.67 241.5C1311.67 246.7 1311.37 252.2 1310.77 258H1179.37C1180.37 274.2 1185.87 286.9 1195.87 296.1C1206.07 305.1 1218.37 309.6 1232.77 309.6C1244.57 309.6 1254.37 306.9 1262.17 301.5C1270.17 295.9 1275.77 288.5 1278.97 279.3H1308.37C1303.97 295.1 1295.17 308 1281.97 318C1268.77 327.8 1252.37 332.7 1232.77 332.7C1217.17 332.7 1203.17 329.2 1190.77 322.2C1178.57 315.2 1168.97 305.3 1161.97 292.5C1154.97 279.5 1151.47 264.5 1151.47 247.5C1151.47 230.5 1154.87 215.6 1161.67 202.8C1168.47 190 1177.97 180.2 1190.17 173.4C1202.57 166.4 1216.77 162.9 1232.77 162.9C1248.37 162.9 1262.17 166.3 1274.17 173.1C1286.17 179.9 1295.37 189.3 1301.77 201.3C1308.37 213.1 1311.67 226.5 1311.67 241.5ZM1283.47 235.8C1283.47 225.4 1281.17 216.5 1276.57 209.1C1271.97 201.5 1265.67 195.8 1257.67 192C1249.87 188 1241.17 186 1231.57 186C1217.77 186 1205.97 190.4 1196.17 199.2C1186.57 208 1181.07 220.2 1179.67 235.8H1283.47Z" fill="#292929"/>
    <defs>
        <clipPath id="clip0_51_2488">
            <rect width="233" height="235" fill="white" transform="translate(0 107)"/>
        </clipPath>
    </defs>
</svg>
