<svg width="37" height="50" viewBox="0 0 37 50" fill="none" xmlns="http://www.w3.org/2000/svg">
    <path d="M14.4964 13.3651C14.2847 13.3651 14.0776 13.4279 13.9015 13.5456C13.7254 13.6633 13.5882 13.8305 13.5072 14.0262C13.4261 14.2219 13.4049 14.4372 13.4463 14.6449C13.4876 14.8526 13.5896 15.0434 13.7394 15.1931C13.8891 15.3429 14.0799 15.4449 14.2877 15.4862C14.4954 15.5275 14.7107 15.5063 14.9064 15.4252C15.102 15.3442 15.2692 15.2069 15.3869 15.0308C15.5046 14.8547 15.5674 14.6477 15.5673 14.4359C15.567 14.152 15.4541 13.8798 15.2533 13.679C15.0525 13.4783 14.7803 13.3654 14.4964 13.3651Z" fill="#0071FF"/>
    <path d="M22.5036 13.3651C22.2918 13.3651 22.0848 13.4279 21.9087 13.5456C21.7326 13.6633 21.5954 13.8305 21.5143 14.0262C21.4333 14.2219 21.4121 14.4372 21.4534 14.6449C21.4947 14.8526 21.5967 15.0434 21.7465 15.1931C21.8963 15.3429 22.0871 15.4449 22.2948 15.4862C22.5025 15.5275 22.7178 15.5063 22.9135 15.4252C23.1091 15.3442 23.2764 15.2069 23.394 15.0308C23.5117 14.8547 23.5745 14.6477 23.5745 14.4359C23.5742 14.152 23.4612 13.8798 23.2604 13.679C23.0597 13.4783 22.7875 13.3654 22.5036 13.3651V13.3651Z" fill="#0071FF"/>
    <path d="M22.7365 21.0385H14.2635V21.9702H22.7365V21.0385Z" fill="#0071FF"/>
    <path d="M22.7365 22.9182H14.2635V23.8499H22.7365V22.9182Z" fill="#0071FF"/>
    <mask id="path-5-outside-1_66_75" maskUnits="userSpaceOnUse" x="0" y="-1" width="37" height="52" fill="black">
        <rect fill="white" y="-1" width="37" height="52"/>
        <path d="M27.3731 29.5531L23.2024 28.7832V26.5977C24.3599 25.7987 25.2949 24.7182 25.9193 23.4579C26.4822 22.325 26.9437 21.1446 27.2984 19.9303H27.6753C28.2838 19.9319 28.873 19.7168 29.3374 19.3236C29.8018 18.9304 30.1111 18.3847 30.2099 17.7843L30.5966 15.4713C30.6567 15.1122 30.6398 14.7444 30.547 14.3923C30.4541 14.0402 30.2875 13.7118 30.0581 13.429C29.8287 13.1462 29.5418 12.9154 29.2165 12.7519C28.8911 12.5884 28.5347 12.496 28.1709 12.4807V9.67088C28.1709 7.106 27.152 4.64618 25.3383 2.83253C23.5247 1.01889 21.0649 0 18.5 0C15.9351 0 13.4753 1.01889 11.6617 2.83253C9.84802 4.64618 8.82913 7.106 8.82913 9.67088V12.4807C8.46532 12.496 8.10891 12.5884 7.78355 12.7519C7.45818 12.9154 7.1713 13.1462 6.94192 13.429C6.71254 13.7118 6.5459 14.0402 6.45306 14.3923C6.36022 14.7444 6.3433 15.1122 6.40342 15.4713L6.79008 17.7843C6.88889 18.3847 7.19818 18.9304 7.6626 19.3236C8.12702 19.7168 8.71623 19.9319 9.32475 19.9303H9.70153C10.0563 21.1446 10.5178 22.325 11.0808 23.4579C11.7052 24.7181 12.6402 25.7986 13.7976 26.5976V28.7833L9.62703 29.5531C7.20441 30.0004 5.01496 31.2821 3.43898 33.1756C1.863 35.0691 1.00004 37.4548 1 39.9184V47.1462C1.00097 48.0042 1.34223 48.8268 1.94893 49.4334C2.55562 50.0401 3.37819 50.3814 4.23617 50.3823H27.5626C28.2223 50.3828 28.8723 50.223 29.4565 49.9165H35.5341C35.6577 49.9165 35.7762 49.8674 35.8636 49.78C35.9509 49.6927 36 49.5742 36 49.4506V39.9184C36 37.4549 35.137 35.0692 33.5611 33.1756C31.9851 31.2821 29.7957 30.0004 27.3731 29.5531ZM12.269 17.7303L9.98252 13.2492L14.5375 7.46149L27.2099 13.4124L25.0068 17.7303H12.269ZM25.2627 22.6726V19.2214L25.2843 19.2504L27.1694 15.5469C26.9658 18.0172 26.32 20.4308 25.2627 22.6726V22.6726ZM29.3122 13.9892C29.4662 14.1707 29.5786 14.3836 29.6417 14.6131C29.7049 14.8426 29.7171 15.0831 29.6777 15.3178L29.291 17.6307C29.228 18.0135 29.0309 18.3613 28.7348 18.612C28.4388 18.8626 28.0632 18.9997 27.6753 18.9987H27.5478C27.9597 17.3245 28.1689 15.6069 28.1709 13.8828V13.5794L28.2516 13.4209C28.6645 13.4685 29.0438 13.6717 29.3122 13.9891V13.9892ZM18.5 0.931717C20.817 0.934343 23.0383 1.85592 24.6767 3.49426C26.315 5.1326 27.2366 7.35391 27.2392 9.67088V12.3969L14.5986 6.46077C14.5033 6.41595 14.3956 6.40476 14.2932 6.42902C14.1907 6.45328 14.0995 6.51156 14.0344 6.59434L9.76087 12.0244V9.67088C9.7635 7.35391 10.6851 5.1326 12.3234 3.49426C13.9618 1.85592 16.1831 0.934343 18.5 0.931717V0.931717ZM9.32482 18.9986C8.93693 18.9996 8.56134 18.8625 8.26531 18.6119C7.96928 18.3612 7.77213 18.0134 7.70916 17.6306L7.3225 15.3177C7.28453 15.0921 7.29432 14.8611 7.35125 14.6395C7.40819 14.418 7.51099 14.2109 7.65301 14.0316C7.79503 13.8523 7.97311 13.7048 8.17572 13.5986C8.37834 13.4925 8.60098 13.43 8.82925 13.4153V13.8826C8.83127 15.6068 9.04046 17.3244 9.45232 18.9986L9.32482 18.9986ZM9.78919 14.9202L11.7374 18.7386V22.6726C10.5901 20.2398 9.92835 17.6065 9.78919 14.9202V14.9202ZM12.6691 24.2515V18.662H24.331V24.2515C23.9999 24.685 23.6213 25.0802 23.2024 25.4296V25.4164C22.9092 25.6598 22.5977 25.8802 22.2707 26.0756V26.088C21.129 26.7639 19.8267 27.1205 18.5 27.1205C17.1733 27.1205 15.871 26.7639 14.7293 26.0879V26.0755C14.4023 25.8801 14.0908 25.6597 13.7976 25.4164V25.4295C13.3787 25.0801 13.0002 24.685 12.6691 24.2515H12.6691ZM18.5001 28.0522C19.8104 28.0544 21.1026 27.7461 22.2707 27.1525V29.1425C21.2496 30.102 19.9012 30.6362 18.5 30.6362C17.0989 30.6362 15.7505 30.102 14.7294 29.1425V27.1524C15.8975 27.746 17.1897 28.0544 18.5 28.0522H18.5001ZM27.5626 49.4507H23.2125L25.9459 42.0212H27.5626C28.4017 42.0222 29.2061 42.3559 29.7994 42.9493C30.3927 43.5426 30.7265 44.347 30.7274 45.1861V46.2858C30.7265 47.1249 30.3927 47.9293 29.7994 48.5227C29.2061 49.116 28.4016 49.4497 27.5626 49.4507V49.4507ZM22.2198 49.4507H20.5649V42.0212H24.9531L22.2198 49.4507ZM19.6332 49.4507H16.001V42.0212H19.6332V49.4507ZM15.0693 49.4507H11.1451V42.0212H15.0693V49.4507ZM10.2134 49.4507H4.23615C3.62519 49.45 3.03945 49.2069 2.60743 48.7749C2.17541 48.3429 1.93239 47.7572 1.93168 47.1462V44.2376H10.2134L10.2134 49.4507ZM35.0683 48.9848H30.6405C31.2975 48.2393 31.6597 47.2795 31.6591 46.2858V45.1861C31.6579 44.1 31.2259 43.0588 30.4579 42.2908C29.6899 41.5228 28.6487 41.0908 27.5626 41.0896H10.6793C10.5557 41.0896 10.4372 41.1386 10.3499 41.226C10.2625 41.3134 10.2134 41.4319 10.2134 41.5554V43.3059H1.93173V39.9184C1.93177 37.6726 2.71845 35.4978 4.15515 33.7716C5.59185 32.0455 7.58778 30.8771 9.79629 30.4694L13.9665 29.6996C15.1719 30.8963 16.8015 31.5679 18.5 31.5679C20.1985 31.5679 21.8281 30.8963 23.0335 29.6996L27.2039 30.4695C29.4124 30.8771 31.4083 32.0455 32.845 33.7717C34.2816 35.4978 35.0683 37.6727 35.0683 39.9185L35.0683 48.9848Z"/>
    </mask>
    <path d="M27.3731 29.5531L23.2024 28.7832V26.5977C24.3599 25.7987 25.2949 24.7182 25.9193 23.4579C26.4822 22.325 26.9437 21.1446 27.2984 19.9303H27.6753C28.2838 19.9319 28.873 19.7168 29.3374 19.3236C29.8018 18.9304 30.1111 18.3847 30.2099 17.7843L30.5966 15.4713C30.6567 15.1122 30.6398 14.7444 30.547 14.3923C30.4541 14.0402 30.2875 13.7118 30.0581 13.429C29.8287 13.1462 29.5418 12.9154 29.2165 12.7519C28.8911 12.5884 28.5347 12.496 28.1709 12.4807V9.67088C28.1709 7.106 27.152 4.64618 25.3383 2.83253C23.5247 1.01889 21.0649 0 18.5 0C15.9351 0 13.4753 1.01889 11.6617 2.83253C9.84802 4.64618 8.82913 7.106 8.82913 9.67088V12.4807C8.46532 12.496 8.10891 12.5884 7.78355 12.7519C7.45818 12.9154 7.1713 13.1462 6.94192 13.429C6.71254 13.7118 6.5459 14.0402 6.45306 14.3923C6.36022 14.7444 6.3433 15.1122 6.40342 15.4713L6.79008 17.7843C6.88889 18.3847 7.19818 18.9304 7.6626 19.3236C8.12702 19.7168 8.71623 19.9319 9.32475 19.9303H9.70153C10.0563 21.1446 10.5178 22.325 11.0808 23.4579C11.7052 24.7181 12.6402 25.7986 13.7976 26.5976V28.7833L9.62703 29.5531C7.20441 30.0004 5.01496 31.2821 3.43898 33.1756C1.863 35.0691 1.00004 37.4548 1 39.9184V47.1462C1.00097 48.0042 1.34223 48.8268 1.94893 49.4334C2.55562 50.0401 3.37819 50.3814 4.23617 50.3823H27.5626C28.2223 50.3828 28.8723 50.223 29.4565 49.9165H35.5341C35.6577 49.9165 35.7762 49.8674 35.8636 49.78C35.9509 49.6927 36 49.5742 36 49.4506V39.9184C36 37.4549 35.137 35.0692 33.5611 33.1756C31.9851 31.2821 29.7957 30.0004 27.3731 29.5531ZM12.269 17.7303L9.98252 13.2492L14.5375 7.46149L27.2099 13.4124L25.0068 17.7303H12.269ZM25.2627 22.6726V19.2214L25.2843 19.2504L27.1694 15.5469C26.9658 18.0172 26.32 20.4308 25.2627 22.6726V22.6726ZM29.3122 13.9892C29.4662 14.1707 29.5786 14.3836 29.6417 14.6131C29.7049 14.8426 29.7171 15.0831 29.6777 15.3178L29.291 17.6307C29.228 18.0135 29.0309 18.3613 28.7348 18.612C28.4388 18.8626 28.0632 18.9997 27.6753 18.9987H27.5478C27.9597 17.3245 28.1689 15.6069 28.1709 13.8828V13.5794L28.2516 13.4209C28.6645 13.4685 29.0438 13.6717 29.3122 13.9891V13.9892ZM18.5 0.931717C20.817 0.934343 23.0383 1.85592 24.6767 3.49426C26.315 5.1326 27.2366 7.35391 27.2392 9.67088V12.3969L14.5986 6.46077C14.5033 6.41595 14.3956 6.40476 14.2932 6.42902C14.1907 6.45328 14.0995 6.51156 14.0344 6.59434L9.76087 12.0244V9.67088C9.7635 7.35391 10.6851 5.1326 12.3234 3.49426C13.9618 1.85592 16.1831 0.934343 18.5 0.931717V0.931717ZM9.32482 18.9986C8.93693 18.9996 8.56134 18.8625 8.26531 18.6119C7.96928 18.3612 7.77213 18.0134 7.70916 17.6306L7.3225 15.3177C7.28453 15.0921 7.29432 14.8611 7.35125 14.6395C7.40819 14.418 7.51099 14.2109 7.65301 14.0316C7.79503 13.8523 7.97311 13.7048 8.17572 13.5986C8.37834 13.4925 8.60098 13.43 8.82925 13.4153V13.8826C8.83127 15.6068 9.04046 17.3244 9.45232 18.9986L9.32482 18.9986ZM9.78919 14.9202L11.7374 18.7386V22.6726C10.5901 20.2398 9.92835 17.6065 9.78919 14.9202V14.9202ZM12.6691 24.2515V18.662H24.331V24.2515C23.9999 24.685 23.6213 25.0802 23.2024 25.4296V25.4164C22.9092 25.6598 22.5977 25.8802 22.2707 26.0756V26.088C21.129 26.7639 19.8267 27.1205 18.5 27.1205C17.1733 27.1205 15.871 26.7639 14.7293 26.0879V26.0755C14.4023 25.8801 14.0908 25.6597 13.7976 25.4164V25.4295C13.3787 25.0801 13.0002 24.685 12.6691 24.2515H12.6691ZM18.5001 28.0522C19.8104 28.0544 21.1026 27.7461 22.2707 27.1525V29.1425C21.2496 30.102 19.9012 30.6362 18.5 30.6362C17.0989 30.6362 15.7505 30.102 14.7294 29.1425V27.1524C15.8975 27.746 17.1897 28.0544 18.5 28.0522H18.5001ZM27.5626 49.4507H23.2125L25.9459 42.0212H27.5626C28.4017 42.0222 29.2061 42.3559 29.7994 42.9493C30.3927 43.5426 30.7265 44.347 30.7274 45.1861V46.2858C30.7265 47.1249 30.3927 47.9293 29.7994 48.5227C29.2061 49.116 28.4016 49.4497 27.5626 49.4507V49.4507ZM22.2198 49.4507H20.5649V42.0212H24.9531L22.2198 49.4507ZM19.6332 49.4507H16.001V42.0212H19.6332V49.4507ZM15.0693 49.4507H11.1451V42.0212H15.0693V49.4507ZM10.2134 49.4507H4.23615C3.62519 49.45 3.03945 49.2069 2.60743 48.7749C2.17541 48.3429 1.93239 47.7572 1.93168 47.1462V44.2376H10.2134L10.2134 49.4507ZM35.0683 48.9848H30.6405C31.2975 48.2393 31.6597 47.2795 31.6591 46.2858V45.1861C31.6579 44.1 31.2259 43.0588 30.4579 42.2908C29.6899 41.5228 28.6487 41.0908 27.5626 41.0896H10.6793C10.5557 41.0896 10.4372 41.1386 10.3499 41.226C10.2625 41.3134 10.2134 41.4319 10.2134 41.5554V43.3059H1.93173V39.9184C1.93177 37.6726 2.71845 35.4978 4.15515 33.7716C5.59185 32.0455 7.58778 30.8771 9.79629 30.4694L13.9665 29.6996C15.1719 30.8963 16.8015 31.5679 18.5 31.5679C20.1985 31.5679 21.8281 30.8963 23.0335 29.6996L27.2039 30.4695C29.4124 30.8771 31.4083 32.0455 32.845 33.7717C34.2816 35.4978 35.0683 37.6727 35.0683 39.9185L35.0683 48.9848Z" fill="#0071FF"/>
    <path d="M27.3731 29.5531L23.2024 28.7832V26.5977C24.3599 25.7987 25.2949 24.7182 25.9193 23.4579C26.4822 22.325 26.9437 21.1446 27.2984 19.9303H27.6753C28.2838 19.9319 28.873 19.7168 29.3374 19.3236C29.8018 18.9304 30.1111 18.3847 30.2099 17.7843L30.5966 15.4713C30.6567 15.1122 30.6398 14.7444 30.547 14.3923C30.4541 14.0402 30.2875 13.7118 30.0581 13.429C29.8287 13.1462 29.5418 12.9154 29.2165 12.7519C28.8911 12.5884 28.5347 12.496 28.1709 12.4807V9.67088C28.1709 7.106 27.152 4.64618 25.3383 2.83253C23.5247 1.01889 21.0649 0 18.5 0C15.9351 0 13.4753 1.01889 11.6617 2.83253C9.84802 4.64618 8.82913 7.106 8.82913 9.67088V12.4807C8.46532 12.496 8.10891 12.5884 7.78355 12.7519C7.45818 12.9154 7.1713 13.1462 6.94192 13.429C6.71254 13.7118 6.5459 14.0402 6.45306 14.3923C6.36022 14.7444 6.3433 15.1122 6.40342 15.4713L6.79008 17.7843C6.88889 18.3847 7.19818 18.9304 7.6626 19.3236C8.12702 19.7168 8.71623 19.9319 9.32475 19.9303H9.70153C10.0563 21.1446 10.5178 22.325 11.0808 23.4579C11.7052 24.7181 12.6402 25.7986 13.7976 26.5976V28.7833L9.62703 29.5531C7.20441 30.0004 5.01496 31.2821 3.43898 33.1756C1.863 35.0691 1.00004 37.4548 1 39.9184V47.1462C1.00097 48.0042 1.34223 48.8268 1.94893 49.4334C2.55562 50.0401 3.37819 50.3814 4.23617 50.3823H27.5626C28.2223 50.3828 28.8723 50.223 29.4565 49.9165H35.5341C35.6577 49.9165 35.7762 49.8674 35.8636 49.78C35.9509 49.6927 36 49.5742 36 49.4506V39.9184C36 37.4549 35.137 35.0692 33.5611 33.1756C31.9851 31.2821 29.7957 30.0004 27.3731 29.5531ZM12.269 17.7303L9.98252 13.2492L14.5375 7.46149L27.2099 13.4124L25.0068 17.7303H12.269ZM25.2627 22.6726V19.2214L25.2843 19.2504L27.1694 15.5469C26.9658 18.0172 26.32 20.4308 25.2627 22.6726V22.6726ZM29.3122 13.9892C29.4662 14.1707 29.5786 14.3836 29.6417 14.6131C29.7049 14.8426 29.7171 15.0831 29.6777 15.3178L29.291 17.6307C29.228 18.0135 29.0309 18.3613 28.7348 18.612C28.4388 18.8626 28.0632 18.9997 27.6753 18.9987H27.5478C27.9597 17.3245 28.1689 15.6069 28.1709 13.8828V13.5794L28.2516 13.4209C28.6645 13.4685 29.0438 13.6717 29.3122 13.9891V13.9892ZM18.5 0.931717C20.817 0.934343 23.0383 1.85592 24.6767 3.49426C26.315 5.1326 27.2366 7.35391 27.2392 9.67088V12.3969L14.5986 6.46077C14.5033 6.41595 14.3956 6.40476 14.2932 6.42902C14.1907 6.45328 14.0995 6.51156 14.0344 6.59434L9.76087 12.0244V9.67088C9.7635 7.35391 10.6851 5.1326 12.3234 3.49426C13.9618 1.85592 16.1831 0.934343 18.5 0.931717V0.931717ZM9.32482 18.9986C8.93693 18.9996 8.56134 18.8625 8.26531 18.6119C7.96928 18.3612 7.77213 18.0134 7.70916 17.6306L7.3225 15.3177C7.28453 15.0921 7.29432 14.8611 7.35125 14.6395C7.40819 14.418 7.51099 14.2109 7.65301 14.0316C7.79503 13.8523 7.97311 13.7048 8.17572 13.5986C8.37834 13.4925 8.60098 13.43 8.82925 13.4153V13.8826C8.83127 15.6068 9.04046 17.3244 9.45232 18.9986L9.32482 18.9986ZM9.78919 14.9202L11.7374 18.7386V22.6726C10.5901 20.2398 9.92835 17.6065 9.78919 14.9202V14.9202ZM12.6691 24.2515V18.662H24.331V24.2515C23.9999 24.685 23.6213 25.0802 23.2024 25.4296V25.4164C22.9092 25.6598 22.5977 25.8802 22.2707 26.0756V26.088C21.129 26.7639 19.8267 27.1205 18.5 27.1205C17.1733 27.1205 15.871 26.7639 14.7293 26.0879V26.0755C14.4023 25.8801 14.0908 25.6597 13.7976 25.4164V25.4295C13.3787 25.0801 13.0002 24.685 12.6691 24.2515H12.6691ZM18.5001 28.0522C19.8104 28.0544 21.1026 27.7461 22.2707 27.1525V29.1425C21.2496 30.102 19.9012 30.6362 18.5 30.6362C17.0989 30.6362 15.7505 30.102 14.7294 29.1425V27.1524C15.8975 27.746 17.1897 28.0544 18.5 28.0522H18.5001ZM27.5626 49.4507H23.2125L25.9459 42.0212H27.5626C28.4017 42.0222 29.2061 42.3559 29.7994 42.9493C30.3927 43.5426 30.7265 44.347 30.7274 45.1861V46.2858C30.7265 47.1249 30.3927 47.9293 29.7994 48.5227C29.2061 49.116 28.4016 49.4497 27.5626 49.4507V49.4507ZM22.2198 49.4507H20.5649V42.0212H24.9531L22.2198 49.4507ZM19.6332 49.4507H16.001V42.0212H19.6332V49.4507ZM15.0693 49.4507H11.1451V42.0212H15.0693V49.4507ZM10.2134 49.4507H4.23615C3.62519 49.45 3.03945 49.2069 2.60743 48.7749C2.17541 48.3429 1.93239 47.7572 1.93168 47.1462V44.2376H10.2134L10.2134 49.4507ZM35.0683 48.9848H30.6405C31.2975 48.2393 31.6597 47.2795 31.6591 46.2858V45.1861C31.6579 44.1 31.2259 43.0588 30.4579 42.2908C29.6899 41.5228 28.6487 41.0908 27.5626 41.0896H10.6793C10.5557 41.0896 10.4372 41.1386 10.3499 41.226C10.2625 41.3134 10.2134 41.4319 10.2134 41.5554V43.3059H1.93173V39.9184C1.93177 37.6726 2.71845 35.4978 4.15515 33.7716C5.59185 32.0455 7.58778 30.8771 9.79629 30.4694L13.9665 29.6996C15.1719 30.8963 16.8015 31.5679 18.5 31.5679C20.1985 31.5679 21.8281 30.8963 23.0335 29.6996L27.2039 30.4695C29.4124 30.8771 31.4083 32.0455 32.845 33.7717C34.2816 35.4978 35.0683 37.6727 35.0683 39.9185L35.0683 48.9848Z" stroke="#0071FF" mask="url(#path-5-outside-1_66_75)"/>
</svg>
