<svg width="41" height="45" viewBox="0 0 41 45" fill="none" xmlns="http://www.w3.org/2000/svg">
    <path d="M17.75 5.35C18.2194 5.35 18.6 4.96944 18.6 4.5C18.6 4.03056 18.2194 3.65 17.75 3.65C17.2806 3.65 16.9 4.03056 16.9 4.5C16.9 4.96944 17.2806 5.35 17.75 5.35Z" fill="#D00000" stroke="#D00000" stroke-width="0.2"/>
    <path d="M19.25 21.85C19.4754 21.85 19.6916 21.7604 19.851 21.601C20.0104 21.4416 20.1 21.2254 20.1 21V18.85H22.25C22.4754 18.85 22.6916 18.7604 22.851 18.601C23.0104 18.4416 23.1 18.2254 23.1 18V15C23.1 14.7746 23.0104 14.5584 22.851 14.399C22.6916 14.2396 22.4754 14.15 22.25 14.15H20.1V12C20.1 11.7746 20.0104 11.5584 19.851 11.399C19.6916 11.2396 19.4754 11.15 19.25 11.15H16.25C16.0246 11.15 15.8084 11.2396 15.649 11.399C15.4896 11.5584 15.4 11.7746 15.4 12V14.15H13.25C13.0246 14.15 12.8084 14.2396 12.649 14.399C12.4896 14.5584 12.4 14.7746 12.4 15V18C12.4 18.2254 12.4896 18.4416 12.649 18.601C12.8084 18.7604 13.0246 18.85 13.25 18.85H15.4V21C15.4 21.2254 15.4896 21.4416 15.649 21.601C15.8084 21.7604 16.0246 21.85 16.25 21.85H19.25ZM14.1 17.15V15.85H16.25C16.4754 15.85 16.6916 15.7604 16.851 15.601C17.0104 15.4416 17.1 15.2254 17.1 15V12.85H18.4V15C18.4 15.2254 18.4896 15.4416 18.649 15.601C18.8084 15.7604 19.0246 15.85 19.25 15.85H21.4V17.15H19.25C19.0246 17.15 18.8084 17.2396 18.649 17.399C18.4896 17.5584 18.4 17.7746 18.4 18V20.15H17.1V18C17.1 17.7746 17.0104 17.5584 16.851 17.399C16.6916 17.2396 16.4754 17.15 16.25 17.15H14.1Z" fill="#D00000" stroke="#D00000" stroke-width="0.2"/>
    <path d="M13.25 21.65H10.25C10.0246 21.65 9.80836 21.7396 9.64896 21.899C9.48955 22.0584 9.4 22.2746 9.4 22.5V25.5C9.4 25.7254 9.48955 25.9416 9.64896 26.101C9.80836 26.2604 10.0246 26.35 10.25 26.35H13.25C13.4754 26.35 13.6916 26.2604 13.851 26.101C14.0104 25.9416 14.1 25.7254 14.1 25.5V22.5C14.1 22.2746 14.0104 22.0584 13.851 21.899C13.6916 21.7396 13.4754 21.65 13.25 21.65ZM12.4 24.65H11.1V23.35H12.4V24.65Z" fill="#D00000" stroke="#D00000" stroke-width="0.2"/>
    <path d="M16.25 24.65H16.15V24.75V26.25V26.35H16.25H26.75H26.85V26.25V24.75V24.65H26.75H16.25Z" fill="#D00000" stroke="#D00000" stroke-width="0.2"/>
    <path d="M13.25 27.65H10.25C10.0246 27.65 9.80836 27.7396 9.64896 27.899C9.48955 28.0584 9.4 28.2746 9.4 28.5V31.5C9.4 31.7254 9.48955 31.9416 9.64896 32.101C9.80836 32.2604 10.0246 32.35 10.25 32.35H13.25C13.4754 32.35 13.6916 32.2604 13.851 32.101C14.0104 31.9416 14.1 31.7254 14.1 31.5V28.5C14.1 28.2746 14.0104 28.0584 13.851 27.899C13.6916 27.7396 13.4754 27.65 13.25 27.65ZM12.4 30.65H11.1V29.35H12.4V30.65Z" fill="#D00000" stroke="#D00000" stroke-width="0.2"/>
    <path d="M16.25 30.65H16.15V30.75V32.25V32.35H16.25H26.75H26.85V32.25V30.75V30.65H26.75H16.25Z" fill="#D00000" stroke="#D00000" stroke-width="0.2"/>
    <path d="M13.25 33.65H10.25C10.0246 33.65 9.80836 33.7396 9.64896 33.899C9.48955 34.0584 9.4 34.2746 9.4 34.5V37.5C9.4 37.7254 9.48955 37.9416 9.64896 38.101C9.80836 38.2604 10.0246 38.35 10.25 38.35H13.25C13.4754 38.35 13.6916 38.2604 13.851 38.101C14.0104 37.9416 14.1 37.7254 14.1 37.5V34.5C14.1 34.2746 14.0104 34.0584 13.851 33.899C13.6916 33.7396 13.4754 33.65 13.25 33.65ZM12.4 36.65H11.1V35.35H12.4V36.65Z" fill="#D00000" stroke="#D00000" stroke-width="0.2"/>
    <path d="M16.25 36.65H16.15V36.75V38.25V38.35H16.25H25.25H25.35V38.25V36.75V36.65H25.25H16.25Z" fill="#D00000" stroke="#D00000" stroke-width="0.2"/>
    <path d="M19.2501 0.65H19.25L16.25 0.65L16.2499 0.65C15.3627 0.651102 14.5031 0.958031 13.8158 1.51905C13.1497 2.06283 12.685 2.8131 12.4944 3.65H4.25C4.02457 3.65 3.80837 3.73955 3.64896 3.89896C3.48955 4.05837 3.4 4.27457 3.4 4.5V5.15H1.25C1.02457 5.15 0.808365 5.23955 0.648959 5.39896C0.489554 5.55837 0.4 5.77457 0.4 6V43.5C0.4 43.7254 0.489553 43.9416 0.648959 44.101C0.808365 44.2604 1.02457 44.35 1.25 44.35H34.25H34.2501C35.9995 44.348 37.6819 43.6768 38.9522 42.474C40.2225 41.2711 40.9844 39.6279 41.0818 37.8812C41.1791 36.1345 40.6045 34.4167 39.4757 33.0802C38.3662 31.7664 36.8039 30.9189 35.1 30.7039V6C35.1 5.77457 35.0104 5.55837 34.851 5.39896C34.6916 5.23955 34.4754 5.15 34.25 5.15H32.1V4.5C32.1 4.27457 32.0104 4.05837 31.851 3.89896C31.6916 3.73955 31.4754 3.65 31.25 3.65H23.0056C22.815 2.8131 22.3503 2.06283 21.6842 1.51905C20.9969 0.958031 20.1373 0.651102 19.2501 0.65ZM33.4 6.85V30.7037C32.9581 30.7587 32.5226 30.8569 32.1 30.997V6.85H33.4ZM13.25 5.35C13.4754 5.35 13.6916 5.26045 13.851 5.10104C14.0104 4.94166 14.1 4.72551 14.1 4.50012C14.1007 3.93007 14.3274 3.38357 14.7305 2.98049C15.1335 2.57743 15.68 2.35069 16.25 2.35C16.25 2.35 16.2501 2.35 16.2501 2.35H19.2499C19.2499 2.35 19.25 2.35 19.25 2.35C19.82 2.35069 20.3665 2.57743 20.7695 2.98049C21.1726 3.38357 21.3993 3.93007 21.4 4.50012C21.4 4.72551 21.4896 4.94166 21.649 5.10104C21.8084 5.26045 22.0246 5.35 22.25 5.35H24.4V8.15H11.1V5.35H13.25ZM5.1 5.35H9.4V9C9.4 9.22543 9.48955 9.44163 9.64896 9.60104C9.80836 9.76045 10.0246 9.85 10.25 9.85H25.25C25.4754 9.85 25.6916 9.76045 25.851 9.60104C26.0104 9.44163 26.1 9.22543 26.1 9V5.35H30.4V31.8374C29.1559 32.6816 28.2241 33.9126 27.7494 35.3402C27.284 36.7402 27.2839 38.2519 27.747 39.65H5.1V5.35ZM2.1 42.65V6.85H3.4V40.5C3.4 40.7254 3.48955 40.9416 3.64896 41.101C3.80837 41.2604 4.02457 41.35 4.25 41.35H28.5876C28.9156 41.8304 29.3027 42.2671 29.7398 42.65H2.1ZM34.2499 42.65C33.2314 42.65 32.2357 42.3479 31.3888 41.7821C30.5419 41.2162 29.8818 40.4119 29.492 39.4708C29.1022 38.5298 29.0002 37.4943 29.199 36.4953C29.3977 35.4963 29.8882 34.5786 30.6084 33.8584C31.3286 33.1382 32.2463 32.6477 33.2453 32.449C34.2443 32.2502 35.2798 32.3522 36.2208 32.742C37.1619 33.1318 37.9662 33.7919 38.5321 34.6388C39.0979 35.4857 39.4 36.4814 39.4 37.4999C39.3985 38.8653 38.8554 40.1744 37.8899 41.1399C36.9244 42.1054 35.6153 42.6485 34.2499 42.65Z" fill="#D00000" stroke="#D00000" stroke-width="0.2"/>
    <path d="M33.8698 39.7602C34.0551 39.8529 34.2679 39.8747 34.4681 39.8215C34.6683 39.7684 34.8423 39.6439 34.9572 39.4715L34.9572 39.4715L37.9572 34.9715L38.0127 34.8883L37.9295 34.8329L36.6815 34.0008L36.5983 33.9454L36.5428 34.0286L33.959 37.9041L31.6302 36.7398L31.5407 36.6951L31.496 36.7845L30.8251 38.1261L30.7804 38.2155L30.8698 38.2602L33.8698 39.7602ZM33.8698 39.7602L33.9146 39.6708L33.8698 39.7602L33.8698 39.7602Z" fill="#D00000" stroke="#D00000" stroke-width="0.2"/>
</svg>
