<svg width="45" height="45" viewBox="0 0 45 45" fill="none" xmlns="http://www.w3.org/2000/svg">
    <mask id="path-1-outside-1_66_56" maskUnits="userSpaceOnUse" x="2.92915" y="4.00009" width="40" height="38" fill="black">
        <rect fill="white" x="2.92915" y="4.00009" width="40" height="38"/>
        <path d="M40.6002 39.0542H37.4203V23.7612H40.6002C40.7256 23.7612 40.8459 23.7114 40.9345 23.6227C41.0232 23.534 41.073 23.4138 41.073 23.2884C41.073 23.163 41.0232 23.0427 40.9345 22.954C40.8459 22.8653 40.7256 22.8155 40.6002 22.8155H36.9466C36.8212 22.8155 36.7009 22.8653 36.6122 22.954C36.5235 23.0427 36.4737 23.163 36.4737 23.2884V29.2843H35.3839C32.4993 26.4533 28.9951 25.1314 26.0288 24.4617L26.0156 23.2418C26.0054 21.4261 25.4076 19.6626 24.3118 18.2149C23.216 16.7672 21.6809 15.7131 19.9362 15.2103C21.0276 14.6762 21.906 13.7883 22.4283 12.6912C22.9507 11.5941 23.0861 10.3525 22.8127 9.16857C22.5393 7.98465 21.873 6.92819 20.9225 6.17126C19.972 5.41433 18.7932 5.00153 17.5781 5.00009H17.5544C16.337 5.0054 15.1574 5.42355 14.2084 6.18617C13.2594 6.9488 12.5972 8.01079 12.3301 9.19854C12.0629 10.3863 12.2066 11.6296 12.7376 12.7251C13.2686 13.8206 14.1555 14.7036 15.2534 15.2297C13.5119 15.7467 11.9848 16.814 10.9007 18.2717C9.81662 19.7293 9.23394 21.499 9.23993 23.3156L9.25224 25.3837C9.05624 25.28 8.87167 25.1824 8.70028 25.0936C7.20614 24.3149 5.6997 24.5039 4.46395 25.6289C4.29076 25.7869 4.15345 25.9803 4.06127 26.1959C3.9691 26.4115 3.92419 26.6443 3.92958 26.8787C3.93446 27.1199 3.99105 27.3572 4.09552 27.5746C4.19999 27.7921 4.34991 27.9845 4.53515 28.139L15.953 37.6514C17.0363 38.5608 18.4058 39.0588 19.8202 39.0577C19.996 39.0577 20.1806 39.0489 20.3616 39.0331L32.9933 37.9186H36.4746V39.5305C36.4746 39.656 36.5244 39.7762 36.6131 39.8649C36.7018 39.9536 36.822 40.0034 36.9474 40.0034H40.6011C40.7265 40.0034 40.8467 39.9536 40.9354 39.8649C41.0241 39.7762 41.0739 39.656 41.0739 39.5305C41.0739 39.4051 41.0241 39.2849 40.9354 39.1962C40.8467 39.1075 40.7265 39.0577 40.6011 39.0577L40.6002 39.0542ZM13.1423 10.4018C13.1388 9.22651 13.6016 8.09777 14.4292 7.26322C15.2568 6.42867 16.3817 5.95647 17.557 5.95019H17.5781C18.7539 5.94797 19.8824 6.41292 20.7153 7.24274C21.5483 8.07256 22.0175 9.19928 22.0197 10.375C22.0219 11.5508 21.5569 12.6793 20.7271 13.5122C19.8973 14.3452 18.7706 14.8144 17.5948 14.8166H17.5781C16.4047 14.8161 15.2792 14.3509 14.4479 13.5228C13.6166 12.6946 13.1472 11.5709 13.1423 10.3975V10.4018ZM10.183 23.3068C10.1785 21.3338 10.9565 19.4396 12.3463 18.0392C13.7362 16.6388 15.6245 15.8466 17.5975 15.8361H17.6282C19.5965 15.8389 21.4839 16.6202 22.8782 18.0094C24.2726 19.3987 25.0608 21.2831 25.0708 23.2514L25.0805 24.2648C23.6549 23.995 22.3963 23.8658 21.4532 23.7691L21.0876 23.7313C19.9292 23.61 18.9281 23.8948 18.0993 24.5768C17.8615 24.7747 17.6763 25.0282 17.5601 25.3149C17.4439 25.6016 17.4003 25.9125 17.4332 26.2201C17.466 26.5277 17.5744 26.8224 17.7485 27.0781C17.9227 27.3337 18.1573 27.5424 18.4315 27.6855C20.0276 28.5126 21.4532 29.2676 22.4218 29.7808L18.167 30.3319C17.3514 29.8696 13.1045 27.4649 10.1979 25.8908L10.183 23.3068ZM32.9467 36.9712L20.272 38.0874C19.6069 38.1481 18.9364 38.0766 18.2991 37.8771C17.6618 37.6775 17.0702 37.3538 16.5586 36.9246L5.13895 27.4078C5.05785 27.3398 4.99232 27.2552 4.94682 27.1597C4.90133 27.0641 4.87693 26.9599 4.87528 26.8541C4.87239 26.7552 4.89092 26.6569 4.92961 26.5659C4.96829 26.4748 5.02622 26.3933 5.0994 26.3267C6.0495 25.4628 7.11386 25.3327 8.26347 25.9295C11.1146 27.4139 17.7715 31.195 17.8383 31.2328C17.9278 31.2828 18.0309 31.3031 18.1327 31.2908L23.8579 30.549L26.7187 32.1091C26.8289 32.1692 26.9584 32.1831 27.0788 32.1478C27.1992 32.1124 27.3006 32.0307 27.3608 31.9205C27.4209 31.8104 27.4348 31.6809 27.3995 31.5605C27.3641 31.4401 27.2824 31.3386 27.1723 31.2785L24.1778 29.6437C24.1778 29.6437 21.8144 28.3693 18.8736 26.8453C18.7359 26.775 18.6181 26.671 18.5313 26.543C18.4445 26.415 18.3914 26.2672 18.377 26.1132C18.3592 25.962 18.3798 25.8088 18.4369 25.6678C18.4941 25.5267 18.586 25.4024 18.704 25.3063C19.3315 24.7904 20.1006 24.5733 20.9953 24.67L21.3636 24.7087C24.3088 25.0101 30.4356 25.6394 34.86 30.0893C34.9488 30.1784 35.0692 30.2287 35.1949 30.2291H36.4746V36.9712H32.9467Z"/>
    </mask>
    <path d="M40.6002 39.0542H37.4203V23.7612H40.6002C40.7256 23.7612 40.8459 23.7114 40.9345 23.6227C41.0232 23.534 41.073 23.4138 41.073 23.2884C41.073 23.163 41.0232 23.0427 40.9345 22.954C40.8459 22.8653 40.7256 22.8155 40.6002 22.8155H36.9466C36.8212 22.8155 36.7009 22.8653 36.6122 22.954C36.5235 23.0427 36.4737 23.163 36.4737 23.2884V29.2843H35.3839C32.4993 26.4533 28.9951 25.1314 26.0288 24.4617L26.0156 23.2418C26.0054 21.4261 25.4076 19.6626 24.3118 18.2149C23.216 16.7672 21.6809 15.7131 19.9362 15.2103C21.0276 14.6762 21.906 13.7883 22.4283 12.6912C22.9507 11.5941 23.0861 10.3525 22.8127 9.16857C22.5393 7.98465 21.873 6.92819 20.9225 6.17126C19.972 5.41433 18.7932 5.00153 17.5781 5.00009H17.5544C16.337 5.0054 15.1574 5.42355 14.2084 6.18617C13.2594 6.9488 12.5972 8.01079 12.3301 9.19854C12.0629 10.3863 12.2066 11.6296 12.7376 12.7251C13.2686 13.8206 14.1555 14.7036 15.2534 15.2297C13.5119 15.7467 11.9848 16.814 10.9007 18.2717C9.81662 19.7293 9.23394 21.499 9.23993 23.3156L9.25224 25.3837C9.05624 25.28 8.87167 25.1824 8.70028 25.0936C7.20614 24.3149 5.6997 24.5039 4.46395 25.6289C4.29076 25.7869 4.15345 25.9803 4.06127 26.1959C3.9691 26.4115 3.92419 26.6443 3.92958 26.8787C3.93446 27.1199 3.99105 27.3572 4.09552 27.5746C4.19999 27.7921 4.34991 27.9845 4.53515 28.139L15.953 37.6514C17.0363 38.5608 18.4058 39.0588 19.8202 39.0577C19.996 39.0577 20.1806 39.0489 20.3616 39.0331L32.9933 37.9186H36.4746V39.5305C36.4746 39.656 36.5244 39.7762 36.6131 39.8649C36.7018 39.9536 36.822 40.0034 36.9474 40.0034H40.6011C40.7265 40.0034 40.8467 39.9536 40.9354 39.8649C41.0241 39.7762 41.0739 39.656 41.0739 39.5305C41.0739 39.4051 41.0241 39.2849 40.9354 39.1962C40.8467 39.1075 40.7265 39.0577 40.6011 39.0577L40.6002 39.0542ZM13.1423 10.4018C13.1388 9.22651 13.6016 8.09777 14.4292 7.26322C15.2568 6.42867 16.3817 5.95647 17.557 5.95019H17.5781C18.7539 5.94797 19.8824 6.41292 20.7153 7.24274C21.5483 8.07256 22.0175 9.19928 22.0197 10.375C22.0219 11.5508 21.5569 12.6793 20.7271 13.5122C19.8973 14.3452 18.7706 14.8144 17.5948 14.8166H17.5781C16.4047 14.8161 15.2792 14.3509 14.4479 13.5228C13.6166 12.6946 13.1472 11.5709 13.1423 10.3975V10.4018ZM10.183 23.3068C10.1785 21.3338 10.9565 19.4396 12.3463 18.0392C13.7362 16.6388 15.6245 15.8466 17.5975 15.8361H17.6282C19.5965 15.8389 21.4839 16.6202 22.8782 18.0094C24.2726 19.3987 25.0608 21.2831 25.0708 23.2514L25.0805 24.2648C23.6549 23.995 22.3963 23.8658 21.4532 23.7691L21.0876 23.7313C19.9292 23.61 18.9281 23.8948 18.0993 24.5768C17.8615 24.7747 17.6763 25.0282 17.5601 25.3149C17.4439 25.6016 17.4003 25.9125 17.4332 26.2201C17.466 26.5277 17.5744 26.8224 17.7485 27.0781C17.9227 27.3337 18.1573 27.5424 18.4315 27.6855C20.0276 28.5126 21.4532 29.2676 22.4218 29.7808L18.167 30.3319C17.3514 29.8696 13.1045 27.4649 10.1979 25.8908L10.183 23.3068ZM32.9467 36.9712L20.272 38.0874C19.6069 38.1481 18.9364 38.0766 18.2991 37.8771C17.6618 37.6775 17.0702 37.3538 16.5586 36.9246L5.13895 27.4078C5.05785 27.3398 4.99232 27.2552 4.94682 27.1597C4.90133 27.0641 4.87693 26.9599 4.87528 26.8541C4.87239 26.7552 4.89092 26.6569 4.92961 26.5659C4.96829 26.4748 5.02622 26.3933 5.0994 26.3267C6.0495 25.4628 7.11386 25.3327 8.26347 25.9295C11.1146 27.4139 17.7715 31.195 17.8383 31.2328C17.9278 31.2828 18.0309 31.3031 18.1327 31.2908L23.8579 30.549L26.7187 32.1091C26.8289 32.1692 26.9584 32.1831 27.0788 32.1478C27.1992 32.1124 27.3006 32.0307 27.3608 31.9205C27.4209 31.8104 27.4348 31.6809 27.3995 31.5605C27.3641 31.4401 27.2824 31.3386 27.1723 31.2785L24.1778 29.6437C24.1778 29.6437 21.8144 28.3693 18.8736 26.8453C18.7359 26.775 18.6181 26.671 18.5313 26.543C18.4445 26.415 18.3914 26.2672 18.377 26.1132C18.3592 25.962 18.3798 25.8088 18.4369 25.6678C18.4941 25.5267 18.586 25.4024 18.704 25.3063C19.3315 24.7904 20.1006 24.5733 20.9953 24.67L21.3636 24.7087C24.3088 25.0101 30.4356 25.6394 34.86 30.0893C34.9488 30.1784 35.0692 30.2287 35.1949 30.2291H36.4746V36.9712H32.9467Z" fill="#26C095"/>
    <path d="M40.6002 39.0542H37.4203V23.7612H40.6002C40.7256 23.7612 40.8459 23.7114 40.9345 23.6227C41.0232 23.534 41.073 23.4138 41.073 23.2884C41.073 23.163 41.0232 23.0427 40.9345 22.954C40.8459 22.8653 40.7256 22.8155 40.6002 22.8155H36.9466C36.8212 22.8155 36.7009 22.8653 36.6122 22.954C36.5235 23.0427 36.4737 23.163 36.4737 23.2884V29.2843H35.3839C32.4993 26.4533 28.9951 25.1314 26.0288 24.4617L26.0156 23.2418C26.0054 21.4261 25.4076 19.6626 24.3118 18.2149C23.216 16.7672 21.6809 15.7131 19.9362 15.2103C21.0276 14.6762 21.906 13.7883 22.4283 12.6912C22.9507 11.5941 23.0861 10.3525 22.8127 9.16857C22.5393 7.98465 21.873 6.92819 20.9225 6.17126C19.972 5.41433 18.7932 5.00153 17.5781 5.00009H17.5544C16.337 5.0054 15.1574 5.42355 14.2084 6.18617C13.2594 6.9488 12.5972 8.01079 12.3301 9.19854C12.0629 10.3863 12.2066 11.6296 12.7376 12.7251C13.2686 13.8206 14.1555 14.7036 15.2534 15.2297C13.5119 15.7467 11.9848 16.814 10.9007 18.2717C9.81662 19.7293 9.23394 21.499 9.23993 23.3156L9.25224 25.3837C9.05624 25.28 8.87167 25.1824 8.70028 25.0936C7.20614 24.3149 5.6997 24.5039 4.46395 25.6289C4.29076 25.7869 4.15345 25.9803 4.06127 26.1959C3.9691 26.4115 3.92419 26.6443 3.92958 26.8787C3.93446 27.1199 3.99105 27.3572 4.09552 27.5746C4.19999 27.7921 4.34991 27.9845 4.53515 28.139L15.953 37.6514C17.0363 38.5608 18.4058 39.0588 19.8202 39.0577C19.996 39.0577 20.1806 39.0489 20.3616 39.0331L32.9933 37.9186H36.4746V39.5305C36.4746 39.656 36.5244 39.7762 36.6131 39.8649C36.7018 39.9536 36.822 40.0034 36.9474 40.0034H40.6011C40.7265 40.0034 40.8467 39.9536 40.9354 39.8649C41.0241 39.7762 41.0739 39.656 41.0739 39.5305C41.0739 39.4051 41.0241 39.2849 40.9354 39.1962C40.8467 39.1075 40.7265 39.0577 40.6011 39.0577L40.6002 39.0542ZM13.1423 10.4018C13.1388 9.22651 13.6016 8.09777 14.4292 7.26322C15.2568 6.42867 16.3817 5.95647 17.557 5.95019H17.5781C18.7539 5.94797 19.8824 6.41292 20.7153 7.24274C21.5483 8.07256 22.0175 9.19928 22.0197 10.375C22.0219 11.5508 21.5569 12.6793 20.7271 13.5122C19.8973 14.3452 18.7706 14.8144 17.5948 14.8166H17.5781C16.4047 14.8161 15.2792 14.3509 14.4479 13.5228C13.6166 12.6946 13.1472 11.5709 13.1423 10.3975V10.4018ZM10.183 23.3068C10.1785 21.3338 10.9565 19.4396 12.3463 18.0392C13.7362 16.6388 15.6245 15.8466 17.5975 15.8361H17.6282C19.5965 15.8389 21.4839 16.6202 22.8782 18.0094C24.2726 19.3987 25.0608 21.2831 25.0708 23.2514L25.0805 24.2648C23.6549 23.995 22.3963 23.8658 21.4532 23.7691L21.0876 23.7313C19.9292 23.61 18.9281 23.8948 18.0993 24.5768C17.8615 24.7747 17.6763 25.0282 17.5601 25.3149C17.4439 25.6016 17.4003 25.9125 17.4332 26.2201C17.466 26.5277 17.5744 26.8224 17.7485 27.0781C17.9227 27.3337 18.1573 27.5424 18.4315 27.6855C20.0276 28.5126 21.4532 29.2676 22.4218 29.7808L18.167 30.3319C17.3514 29.8696 13.1045 27.4649 10.1979 25.8908L10.183 23.3068ZM32.9467 36.9712L20.272 38.0874C19.6069 38.1481 18.9364 38.0766 18.2991 37.8771C17.6618 37.6775 17.0702 37.3538 16.5586 36.9246L5.13895 27.4078C5.05785 27.3398 4.99232 27.2552 4.94682 27.1597C4.90133 27.0641 4.87693 26.9599 4.87528 26.8541C4.87239 26.7552 4.89092 26.6569 4.92961 26.5659C4.96829 26.4748 5.02622 26.3933 5.0994 26.3267C6.0495 25.4628 7.11386 25.3327 8.26347 25.9295C11.1146 27.4139 17.7715 31.195 17.8383 31.2328C17.9278 31.2828 18.0309 31.3031 18.1327 31.2908L23.8579 30.549L26.7187 32.1091C26.8289 32.1692 26.9584 32.1831 27.0788 32.1478C27.1992 32.1124 27.3006 32.0307 27.3608 31.9205C27.4209 31.8104 27.4348 31.6809 27.3995 31.5605C27.3641 31.4401 27.2824 31.3386 27.1723 31.2785L24.1778 29.6437C24.1778 29.6437 21.8144 28.3693 18.8736 26.8453C18.7359 26.775 18.6181 26.671 18.5313 26.543C18.4445 26.415 18.3914 26.2672 18.377 26.1132C18.3592 25.962 18.3798 25.8088 18.4369 25.6678C18.4941 25.5267 18.586 25.4024 18.704 25.3063C19.3315 24.7904 20.1006 24.5733 20.9953 24.67L21.3636 24.7087C24.3088 25.0101 30.4356 25.6394 34.86 30.0893C34.9488 30.1784 35.0692 30.2287 35.1949 30.2291H36.4746V36.9712H32.9467Z" stroke="#26C095" stroke-width="2" mask="url(#path-1-outside-1_66_56)"/>
</svg>
